<svg width="36" height="40" viewBox="0 0 36 40" fill="none" xmlns="http://www.w3.org/2000/svg">
<path d="M0.209034 5.43895C2.19665 2.88117 5.54263 1.16112 8.66389 0.422536C11.92 -0.350746 15.3009 -0.0632437 18.3573 1.29C24.395 3.96179 27.5662 10.7825 28.7198 16.8795C29.1193 18.9714 29.3091 21.0979 29.384 23.2244C29.424 24.3199 29.429 25.4203 29.414 26.5208C29.409 27.0908 29.424 27.6807 29.394 28.2656C31.3367 27.3089 33.1195 26.0548 35.1521 25.2667C35.217 25.2419 35.267 25.2468 35.3069 25.2716C35.6815 25.2221 36.106 25.5938 35.9761 26.0053C35.227 28.3548 33.9785 30.526 32.8549 32.7169C31.7162 34.9476 30.4777 37.1237 29.2991 39.3344C28.8347 40.2019 27.3814 40.2416 26.927 39.3344C25.5686 36.6032 24.2951 33.8273 23.0366 31.0564C22.3924 29.6436 21.7831 28.221 21.2238 26.7686C20.9092 25.9458 20.5197 25.0634 20.4897 24.1662C20.4597 23.3384 21.5634 22.585 22.2875 23.1402C23.4911 24.0572 24.5548 25.1031 25.7234 26.0598C26.6223 26.7934 27.4913 27.5568 28.3453 28.34C28.2654 27.1354 28.3802 25.8714 28.3353 24.7065C28.2654 22.8973 28.1355 21.088 27.8658 19.3035C27.3714 16.0666 26.4525 12.9388 24.6697 10.1579C21.7082 5.54305 16.4745 2.17729 10.8163 2.95553C9.27815 3.16868 7.75997 3.62967 6.37663 4.3286C4.87843 5.08205 3.71482 6.11309 2.42138 7.14909C1.87204 7.59026 1.1529 7.7241 0.558613 7.25815C0.0791893 6.86159 -0.225445 5.99908 0.209034 5.43895ZM24.7396 27.3436C24.5448 27.2048 24.3451 27.0809 24.1453 26.952C24.5998 27.9484 25.0592 28.9398 25.5187 29.9311C26.4126 31.8693 27.3365 33.7926 28.2554 35.7209C29.0894 34.3081 29.9334 32.9103 30.8273 31.5322C31.921 29.8518 32.9597 28.1268 34.1633 26.5257C32.5402 27.76 30.8972 28.9596 29.0644 29.8816C29.0494 29.8915 29.0344 29.8965 29.0195 29.9064C28.9645 29.9312 28.9146 29.9609 28.8646 29.9857C28.57 30.1294 28.2853 30.0848 28.0406 29.8816C26.9669 28.9943 25.8682 28.1516 24.7396 27.3436Z" fill="#661FFE"/>
</svg>
