<svg width="24" height="46" viewBox="0 0 24 46" fill="none" xmlns="http://www.w3.org/2000/svg">
<path d="M0 0H24V18.9841C24 19.8765 23.7604 20.7081 23.2813 21.4788C22.8021 22.2496 22.1458 22.8783 21.3125 23.3651L12.6875 28.2936L14.375 34.1958H21.9375L15.75 38.5767L18.1875 46L12 41.4974L5.8125 46L8.1875 38.5767L2.0625 34.1958H9.625L11.25 28.2936L2.6875 23.4259C1.8125 22.9392 1.14583 22.3104 0.6875 21.5397C0.229167 20.769 0 19.9171 0 18.9841V0ZM2.8125 2.7381V18.9841C2.8125 19.4303 2.94792 19.8461 3.21875 20.2315C3.48958 20.6168 3.85417 20.9312 4.3125 21.1746L10.75 24.7037V2.7381H2.8125ZM21.1875 2.7381H13.625V24.7037L19.6875 21.1746C20.1458 20.9312 20.5104 20.6168 20.7812 20.2315C21.0521 19.8461 21.1875 19.4303 21.1875 18.9841V2.7381Z" fill="white"/>
</svg>
