<svg width="36" height="46" viewBox="0 0 36 46" fill="none" xmlns="http://www.w3.org/2000/svg">
<path fill-rule="evenodd" clip-rule="evenodd" d="M17.5182 0.214659C17.2276 0.511478 17.1887 0.825556 17.2227 2.60287L17.2523 4.15079L17.4993 4.36761C17.6369 4.48851 17.8587 4.58442 18.0005 4.58442C18.1423 4.58442 18.364 4.48851 18.5016 4.36761L18.7486 4.15079L18.7782 2.60287C18.7945 1.75143 18.782 0.914098 18.7504 0.742137C18.6737 0.324685 18.3457 0 18.0005 0C17.831 0 17.6491 0.0809915 17.5182 0.214659ZM9.00991 2.47136C8.75563 2.61474 8.55926 3.06087 8.64252 3.306C8.78722 3.7319 10.3172 6.32992 10.4923 6.44714C10.7578 6.62476 11.2614 6.53001 11.4405 6.26879C11.6922 5.90186 11.601 5.58715 10.8497 4.23097C10.4508 3.51077 10.0249 2.81169 9.90347 2.67748C9.6285 2.37356 9.31261 2.30066 9.00991 2.47136ZM26.1516 2.6293C25.7449 3.05206 24.4258 5.48054 24.4258 5.80649C24.4258 5.95283 24.4863 6.16083 24.5604 6.26879C24.7395 6.53001 25.2431 6.62476 25.5086 6.44714C25.6852 6.32893 27.2132 3.73217 27.3612 3.29845C27.4474 3.04603 27.1926 2.52728 26.9328 2.42651C26.5711 2.28601 26.4521 2.31684 26.1516 2.6293ZM17.0323 6.16892C14.5959 6.4857 12.9965 7.07943 11.1262 8.36136C10.3423 8.89872 8.61444 10.6894 8.05359 11.5458C7.21803 12.8217 6.54936 14.4687 6.19024 16.1354C6.11534 16.4828 6.07494 17.2984 6.07652 18.4276C6.07881 20.0208 6.10029 20.2664 6.31206 21.1243C6.95442 23.7258 7.86321 25.3497 9.75111 27.2694C10.3765 27.9052 10.9517 28.5726 11.0292 28.7526C11.1305 28.9874 11.1856 29.498 11.2244 30.5628C11.2707 31.837 11.305 32.0984 11.4674 32.4176C11.6881 32.8519 12.104 33.2987 12.4646 33.4892C12.6933 33.6099 12.7194 33.6691 12.7194 34.0664C12.7194 34.707 12.8779 35.3654 13.1196 35.7293L13.3302 36.0461L13.1196 36.363C12.8613 36.7517 12.697 37.488 12.7712 37.9239C12.8017 38.1024 12.9365 38.452 13.0709 38.7008C13.3129 39.1484 13.3137 39.1553 13.1488 39.3632C13.0572 39.4787 12.9187 39.7965 12.8411 40.0693C12.4952 41.2844 13.2504 42.5766 14.4829 42.8786C15.231 43.0618 15.712 42.7961 15.712 42.1996C15.712 41.8331 15.3927 41.4396 15.0955 41.4396C14.7792 41.4396 14.4149 41.1873 14.317 40.9004C14.2097 40.5863 14.2547 40.4013 14.5082 40.1137C14.6809 39.9176 14.7371 39.9114 16.3303 39.9114C18.0316 39.9114 18.4641 39.8428 18.6184 39.5484C18.775 39.2496 18.719 38.7881 18.5009 38.5787C18.3068 38.3926 18.2196 38.3833 16.6657 38.3833C15.6753 38.3833 14.9215 38.3432 14.7475 38.2813C14.4026 38.1585 14.173 37.6999 14.2942 37.3763C14.475 36.8934 14.566 36.871 16.4753 36.8395C18.2145 36.8108 18.2554 36.8058 18.4777 36.5923C18.7763 36.3055 18.7902 35.7995 18.5066 35.5289C18.3214 35.3522 18.1945 35.3381 16.5482 35.311C14.5857 35.2787 14.4543 35.243 14.2937 34.6978C14.2428 34.5247 14.2143 34.2416 14.2304 34.0686L14.2597 33.7539L16.2802 33.7297C18.2113 33.7066 18.3097 33.6969 18.5027 33.5118C18.7901 33.2361 18.7783 32.7323 18.4776 32.4437L18.2506 32.2258L15.7158 32.1983L13.1809 32.1709L12.9721 31.944C12.7744 31.7291 12.7609 31.6384 12.7162 30.2186C12.6705 28.7701 12.6596 28.6997 12.3888 28.1091C12.1563 27.6022 11.9156 27.3036 10.9756 26.3562C9.71828 25.089 9.20549 24.4029 8.6339 23.2227C7.80696 21.5153 7.48341 19.9473 7.55171 17.9781C7.62151 15.9649 8.07771 14.4329 9.12451 12.6957C9.71071 11.7229 11.1701 10.19 12.1399 9.5285C13.3756 8.68568 14.9223 8.05977 16.3573 7.82192C17.1745 7.68646 19.0254 7.71127 19.8371 7.86849C23.1347 8.50734 25.9192 10.6783 27.4424 13.7982C28.5953 16.1594 28.7996 19.1614 27.9821 21.729C27.4168 23.5045 26.648 24.7128 25.0666 26.3112C24.0886 27.2996 23.8456 27.6 23.6122 28.109C23.3413 28.6996 23.3304 28.7701 23.2847 30.2186C23.2397 31.6482 23.2277 31.7278 23.0242 31.949C22.814 32.1773 22.7916 32.1808 21.5471 32.1808C20.1161 32.1808 19.7319 32.2803 19.5793 32.6899C19.4757 32.9682 19.5154 33.2181 19.7056 33.4843C19.8164 33.6393 19.9654 33.6702 20.7876 33.709L21.7412 33.7539L21.7705 34.0686C21.811 34.5037 21.6521 34.9886 21.421 35.135C21.3146 35.2024 20.9128 35.2851 20.5281 35.3189C19.7996 35.3828 19.6393 35.4788 19.5321 35.9148C19.3948 36.4733 19.9092 36.8552 20.7989 36.8552C21.2221 36.8552 21.3464 36.8914 21.4928 37.0574C21.7573 37.3576 21.797 37.5512 21.6618 37.8818C21.5147 38.2414 21.1769 38.3833 20.4684 38.3833C20.0895 38.3833 19.9242 38.427 19.7785 38.5656C19.5214 38.8102 19.4558 39.1256 19.5989 39.4303C19.7639 39.7817 20.0645 39.9086 20.7357 39.9101C21.2234 39.9113 21.3425 39.9433 21.4928 40.1137C21.7463 40.4013 21.7912 40.5863 21.6839 40.9004C21.514 41.3984 21.3114 41.4396 19.029 41.4396H16.9683L16.7362 41.6765C16.4436 41.9753 16.4364 42.3379 16.7164 42.6705L16.9286 42.9228L18.524 42.9677L20.1195 43.0127L19.8568 43.4352C19.0919 44.6658 17.5237 44.813 16.347 43.7646C15.8016 43.2787 15.0078 43.551 15.0078 44.2241C15.0078 44.8769 16.2717 45.7687 17.464 45.9572C19.3034 46.248 21.121 45.0275 21.6023 43.1783C21.6769 42.8919 21.7578 42.784 21.9487 42.716C22.5577 42.4992 23.1003 41.7435 23.234 40.926C23.3052 40.4903 23.1157 39.7249 22.8505 39.3772C22.6842 39.1591 22.6848 39.1546 22.9288 38.703C23.0639 38.4531 23.1993 38.1024 23.2297 37.9239C23.3039 37.488 23.1396 36.7517 22.8813 36.363L22.6707 36.0461L22.8813 35.7293C23.123 35.3654 23.2816 34.707 23.2816 34.0664C23.2816 33.6691 23.3076 33.6099 23.5363 33.4892C23.8969 33.2987 24.3128 32.8519 24.5335 32.4176C24.6959 32.0984 24.7302 31.837 24.7765 30.5628C24.8155 29.4914 24.8701 28.9879 24.973 28.7493C25.0524 28.5652 25.6181 27.9084 26.2506 27.2661C28.361 25.1228 29.3487 23.227 29.8479 20.3618C30.0005 19.4853 30.0177 17.6374 29.8816 16.7197C29.1035 11.4716 25.0621 7.23332 19.9809 6.33693C19.1531 6.19095 17.5611 6.10025 17.0323 6.16892ZM2.71299 8.89639C2.30028 9.07356 2.19659 9.75799 2.53124 10.0963C2.90452 10.4737 5.37528 11.8656 5.67199 11.8656C6.27923 11.8656 6.59275 11.1276 6.18399 10.6605C5.9393 10.381 3.44759 8.90322 3.13381 8.85153C3.00812 8.83086 2.81879 8.85099 2.71299 8.89639ZM32.7037 8.8749C32.2886 9.04174 29.9807 10.4735 29.8079 10.6713C29.411 11.1255 29.7424 11.8656 30.3427 11.8656C30.6259 11.8656 33.1097 10.4602 33.4697 10.0963C33.6645 9.8993 33.7265 9.51978 33.6131 9.21783C33.5101 8.94385 33.0056 8.75355 32.7037 8.8749ZM13.142 15.5862C12.528 15.8441 12.1446 16.1609 11.785 16.7074C11.4042 17.2864 11.2764 17.7372 11.2797 18.4905C11.2849 19.6597 11.9547 20.6777 13.0609 21.1976C13.4855 21.3972 13.7079 21.4355 14.6306 21.4678L15.7056 21.5053L15.7308 25.8472L15.756 30.189L15.9693 30.4208C16.234 30.7084 16.6516 30.7273 16.9764 30.4664L17.2083 30.2801V25.8819V21.4839H18.0005H18.7926V25.8819V30.2801L19.0245 30.4664C19.3493 30.7273 19.7669 30.7084 20.0316 30.4208L20.2449 30.189L20.2701 25.8472L20.2953 21.5053L21.3703 21.4678C22.293 21.4355 22.5154 21.3972 22.94 21.1976C23.6276 20.8745 24.1117 20.3964 24.4392 19.7169C24.6728 19.2322 24.7188 19.0323 24.7212 18.4905C24.7245 17.7381 24.5973 17.2886 24.2159 16.7042C23.22 15.1787 21.1106 14.9131 19.7695 16.1444C19.5145 16.3786 19.226 16.7639 19.0831 17.061C18.8622 17.5204 18.8321 17.695 18.7926 18.7422L18.7486 19.9108H18.0005H17.2523L17.2083 18.7422C17.1689 17.695 17.1387 17.5204 16.9178 17.061C16.2387 15.6487 14.5571 14.9919 13.142 15.5862ZM15.0696 17.1356C15.5987 17.539 15.6656 17.7254 15.6974 18.8832L15.7267 19.9557L14.8612 19.9537C14.2097 19.9523 13.9068 19.9106 13.6366 19.7853C12.5159 19.2654 12.4644 17.7595 13.5437 17.0666C13.905 16.8346 14.7234 16.8717 15.0696 17.1356ZM22.4572 17.0719C23.5364 17.744 23.4843 19.2658 22.3643 19.7853C22.0947 19.9102 21.7914 19.9523 21.1471 19.9537L20.2889 19.9557V19.0177C20.2889 18.0191 20.3617 17.7014 20.6689 17.3599C21.0898 16.8918 21.9465 16.7538 22.4572 17.0719ZM0.433847 17.7461C0.0834461 17.9019 -0.0871336 18.2981 0.0441897 18.651C0.220138 19.1234 0.296978 19.1408 2.22713 19.1438C4.00818 19.1467 4.01417 19.1461 4.22955 18.926C4.61516 18.5323 4.4826 17.9108 3.9706 17.712C3.60576 17.5703 0.767612 17.5977 0.433847 17.7461ZM32.0034 17.7165C31.5172 17.9151 31.3967 18.5434 31.7714 18.926C31.9867 19.1461 31.9927 19.1467 33.7738 19.1438C35.7203 19.1408 35.7932 19.1235 35.9626 18.6271C36.0887 18.2576 35.8856 17.8534 35.5056 17.7182C35.161 17.5956 32.303 17.5942 32.0034 17.7165ZM5.28181 25.0391C4.42944 25.4998 2.81624 26.4782 2.59382 26.6693C2.07301 27.1169 2.35581 27.956 3.02748 27.956C3.34303 27.956 5.94916 26.4808 6.228 26.1443C6.43986 25.8888 6.42094 25.4936 6.18399 25.2227C5.92434 24.926 5.60968 24.8619 5.28181 25.0391ZM30.0904 24.9869C29.6517 25.1722 29.4815 25.7928 29.7729 26.1443C29.8576 26.2465 30.5478 26.696 31.3067 27.1431C32.8231 28.0364 33.1318 28.1225 33.4764 27.748C33.7366 27.4649 33.7328 26.971 33.4682 26.7171C33.2113 26.4707 30.7246 25.0033 30.4715 24.9487C30.3656 24.9259 30.1942 24.9431 30.0904 24.9869Z" fill="url(#paint0_linear_1107_9223)"/>
<defs>
<linearGradient id="paint0_linear_1107_9223" x1="0" y1="0" x2="40.6219" y2="4.52702" gradientUnits="userSpaceOnUse">
<stop stop-color="#F11F22"/>
<stop offset="1" stop-color="#F2891D"/>
</linearGradient>
</defs>
</svg>
