<svg width="46" height="46" viewBox="0 0 46 46" fill="none" xmlns="http://www.w3.org/2000/svg">
<path fill-rule="evenodd" clip-rule="evenodd" d="M32.5693 0.146697C32.1077 0.309248 31.5882 0.795554 31.3372 1.30011C31.1698 1.63663 31.1597 1.85753 31.1597 5.20808C31.1597 8.67749 31.1643 8.76767 31.3548 9.11902C31.4621 9.31682 31.6854 9.60811 31.851 9.76626C32.3645 10.2568 32.7352 10.3611 34.1191 10.4044L35.3645 10.4433L35.3156 10.6802C35.1543 11.4619 34.6276 14.676 34.6505 14.7387C34.6657 14.7802 36.2614 13.8266 38.1965 12.6195L41.7148 10.425L42.7704 10.4238C43.3509 10.4232 44.0327 10.3785 44.2854 10.3245C44.9098 10.1911 45.4477 9.76743 45.7519 9.16973L46 8.68216L45.998 5.16951C45.9962 1.95679 45.9819 1.62575 45.8306 1.29364C45.622 0.836281 44.947 0.237503 44.4838 0.0992265C44.2277 0.0228059 42.5835 -0.00452575 38.5469 0.000598924C33.7534 0.00671258 32.9082 0.0273012 32.5693 0.146697ZM44.3351 1.74263L44.5566 1.96326V5.11997C44.5566 8.3407 44.5391 8.52231 44.2036 8.77899C44.1061 8.85353 43.6298 8.88949 42.7138 8.89138L41.3671 8.89425L39.0344 10.3446C37.7514 11.1424 36.6872 11.7795 36.6694 11.7607C36.6517 11.7418 36.7492 11.0891 36.8861 10.3103L37.1349 8.89425H35.113H33.0911L32.8698 8.67353L32.6483 8.4529V5.1955C32.6483 1.97477 32.6504 1.93575 32.8444 1.72995L33.0406 1.52191H38.5772H44.1137L44.3351 1.74263ZM20.9655 2.29852C20.0365 2.39697 18.2928 2.72792 17.4289 2.96968C13.8984 3.95757 10.8154 5.74905 8.24116 8.30833C5.68268 10.8518 3.91249 13.8244 2.93223 17.223L2.63037 18.2695L1.97379 17.1753C1.61266 16.5734 1.28212 16.0594 1.23935 16.033C1.18071 15.9969 0.258363 16.4816 0.000260139 16.6841C-0.0264433 16.7051 2.01051 20.1554 2.50714 20.9305C2.56902 21.027 3.05997 20.7717 4.73922 19.7701C5.92328 19.0639 6.90454 18.4766 6.91979 18.4651C6.93973 18.4499 6.28739 17.3272 6.18184 17.1952C6.17498 17.1867 5.74339 17.4383 5.22268 17.7542C4.70196 18.0702 4.24854 18.33 4.21516 18.3316C4.11836 18.3362 4.48527 17.1182 4.90684 16.0359C7.17627 10.2093 12.0767 5.87852 18.1784 4.30713C21.1889 3.53186 24.6675 3.53114 27.7095 4.30533L28.6797 4.55221L28.8964 3.86865C29.0551 3.36832 29.0848 3.16909 29.0072 3.12503C28.8159 3.01634 27.445 2.69276 26.3604 2.50027C25.5401 2.3548 24.8403 2.30554 23.3111 2.28585C22.2195 2.27173 21.164 2.27748 20.9655 2.29852ZM34.1107 3.70215L34.1368 4.44388L38.5799 4.46716L43.0229 4.49054V3.72543V2.96042H38.5537H34.0844L34.1107 3.70215ZM34.1107 6.66906L34.1368 7.41079L37.0913 7.43453L40.0459 7.45818V6.6928V5.92733H37.0652H34.0844L34.1107 6.66906ZM41.5795 6.69154V7.45575H42.3012H43.0229V6.69154V5.92733H42.3012H41.5795V6.69154ZM21.5068 7.51464C19.6615 7.80836 17.7423 8.73638 16.3453 10.0105C15.0986 11.1476 14.0257 12.948 13.546 14.7079L13.305 15.5923L13.3012 19.2785L13.2973 22.9646L13.532 23.4633C13.8731 24.188 14.2692 24.5884 14.9882 24.9349L15.6212 25.2402L15.8715 26.0154C16.0091 26.4419 16.2981 27.1014 16.5137 27.4811C16.9519 28.2525 18.0879 29.4617 18.7776 29.8907C19.0756 30.0761 19.2061 30.2168 19.2062 30.3531C19.2063 30.5784 19.4273 30.5235 16.0332 31.1423C14.8089 31.3654 13.5852 31.6309 13.3136 31.7322C11.8699 32.2705 10.772 33.414 10.2218 34.9523C10.0862 35.3313 9.94955 35.6717 9.91806 35.7086C9.88649 35.7455 9.26383 35.176 8.53426 34.4432C6.74243 32.6431 6.72619 32.8994 8.76205 30.8584L10.3163 29.3003L7.56672 26.5568L4.81716 23.8134L2.82451 25.8165C1.144 27.5058 0.78747 27.9111 0.548132 28.404C0.104458 29.3176 -0.034743 30.0035 0.0109054 31.0508C0.0546594 32.0532 0.244921 32.7017 0.72856 33.4971C0.917559 33.8079 2.96939 35.9107 6.66123 39.5771C11.9315 44.8111 12.3462 45.2014 12.928 45.4767C14.549 46.2437 16.5235 46.1618 17.9449 45.2687C18.1898 45.1148 19.3233 44.1399 20.4637 43.1023L22.5372 41.2157L21.9794 40.6538L21.4218 40.0919H29.3806C33.7579 40.0919 37.3394 40.0608 37.3394 40.0227C37.3394 39.7818 35.4985 34.5185 35.2517 34.054C34.869 33.3336 33.9387 32.4003 33.2347 32.0307C32.4887 31.639 32.0357 31.5226 29.4457 31.057C26.4487 30.5182 26.6931 30.5809 26.6998 30.3524C26.7038 30.2159 26.9109 30.0084 27.3882 29.6627C27.7637 29.3907 28.2496 28.96 28.468 28.7055L28.8651 28.243L29.9222 28.2075C30.7761 28.1788 31.049 28.1354 31.3413 27.9823C31.7992 27.7426 32.1615 27.3827 32.4093 26.9217C32.6014 26.5642 32.6032 26.512 32.6032 21.2564C32.6032 16.4915 32.5867 15.8758 32.4412 15.2037C31.6388 11.4962 28.9907 8.70221 25.3443 7.71576C24.8265 7.57568 24.32 7.52462 23.2209 7.50169C22.427 7.48515 21.6557 7.49099 21.5068 7.51464ZM24.285 9.02839C27.2361 9.54131 29.7151 11.628 30.6706 14.4036C31.035 15.4617 31.1132 16.0946 31.1139 17.9901L31.1146 19.6686L30.7538 19.5273C30.4019 19.3896 30.3929 19.3752 30.3929 18.9501V18.5143H29.5321C27.3415 18.5143 25.2765 17.621 23.6337 15.9629L22.964 15.2869L22.1765 16.0337C20.3854 17.7325 18.5548 18.5143 16.3684 18.5143H15.5076V18.9501C15.5076 19.3768 15.4998 19.3891 15.1383 19.5306L14.7691 19.6751L14.8102 17.5888C14.8561 15.2623 14.9104 14.9602 15.5132 13.6733C16.5983 11.3572 18.7163 9.6376 21.1076 9.13134C22.3977 8.85829 23.1631 8.83348 24.285 9.02839ZM41.184 14.0399C41.1119 14.152 40.5232 15.124 39.8757 16.1999L38.6986 18.1561L39.079 18.39C39.2882 18.5188 39.5494 18.6802 39.6593 18.7489C39.7692 18.8177 39.8919 18.8739 39.9321 18.8739C39.9723 18.8739 40.2849 18.4054 40.6268 17.8328C41.0377 17.1446 41.2711 16.8322 41.3152 16.9112C41.3519 16.977 41.4865 17.4152 41.6143 17.8849C43.1466 23.5151 42.0523 29.5649 38.6468 34.2906C38.3626 34.685 38.1123 35.054 38.0904 35.1108C38.0555 35.2012 39.0123 36.0436 39.1517 36.0454C39.2599 36.0468 40.2619 34.6196 40.8762 33.5894C42.8061 30.3525 43.767 26.8402 43.7705 23.0096C43.7724 20.9411 43.4781 18.8516 42.9356 17.0804C42.8379 16.7615 42.7689 16.4898 42.7821 16.4766C42.8028 16.4559 43.5911 16.9114 44.6181 17.5372L44.9052 17.7122L45.2842 17.0763C45.4926 16.7267 45.6477 16.4256 45.6287 16.4076C45.585 16.366 41.7242 14.0543 41.4889 13.9288C41.3482 13.8538 41.29 13.875 41.184 14.0399ZM23.5778 17.9102C24.7516 18.8752 26.4505 19.641 27.912 19.8641C28.309 19.9247 28.6845 19.9885 28.7465 20.0056C28.8329 20.0297 28.859 20.5674 28.8579 22.31C28.8565 24.7535 28.7981 25.2168 28.3706 26.1775L28.1411 26.693L25.5456 26.7169L22.9502 26.7407V27.46V28.1792L24.8898 28.2242L26.8295 28.2691L26.4033 28.564C25.7639 29.0065 24.9317 29.3714 24.1842 29.5372C23.2903 29.7353 21.913 29.6738 21.1008 29.3993C19.2727 28.7812 17.8683 27.3527 17.2499 25.482C17.0235 24.7973 17.0102 24.651 16.9716 22.4366C16.9272 19.8926 16.9146 19.9568 17.4582 19.9541C17.8928 19.9521 19.3659 19.5545 20.1125 19.2379C20.8064 18.9437 22.3684 17.9589 22.671 17.625C22.7656 17.5207 22.8783 17.4354 22.9216 17.4354C22.9648 17.4354 23.2601 17.6491 23.5778 17.9102ZM15.5076 22.306V23.5804L15.2735 23.3624C15.1447 23.2425 14.9823 23.0352 14.9126 22.9017C14.7604 22.6101 14.7463 21.9054 14.8873 21.6326C15.0161 21.3835 15.3355 21.0317 15.433 21.0317C15.474 21.0317 15.5076 21.6051 15.5076 22.306ZM30.9493 21.5757C31.2649 22.1622 31.1335 22.8908 30.627 23.3624L30.3929 23.5804V22.295V21.0097L30.5884 21.1391C30.696 21.2102 30.8583 21.4067 30.9493 21.5757ZM31.1146 25.576C31.1146 26.1764 31.0892 26.2798 30.8932 26.4751C30.7187 26.649 30.5786 26.6958 30.2323 26.6958H29.7928L30.0003 26.0889C30.1144 25.7552 30.2089 25.4201 30.2101 25.3444C30.212 25.2324 30.7393 24.9576 31.047 24.9084C31.0842 24.9025 31.1146 25.2029 31.1146 25.576ZM7.83754 29.707L7.4313 30.112L5.72057 28.4053L4.00993 26.6987L4.41147 26.2909L4.8131 25.8831L6.52844 27.5927L8.24386 29.3022L7.83754 29.707ZM6.08765 31.5033C5.62413 32.184 5.56432 33.0613 5.9332 33.7698C6.20367 34.2892 11.9497 39.9585 12.3913 40.1416C13.0856 40.4295 14.1658 40.276 14.6526 39.8203C14.8369 39.6476 14.8429 39.6524 16.5483 41.3585L18.2591 43.0698L17.7872 43.5065C17.5276 43.7467 17.0811 44.0577 16.7948 44.1977C16.3146 44.4326 16.1941 44.4522 15.2369 44.4515C13.5394 44.4502 14.0183 44.8272 7.59513 38.4373C1.58036 32.4538 1.73941 32.6383 1.50251 31.3684C1.30422 30.3057 1.67446 29.1268 2.49063 28.2221L2.90742 27.7601L4.61391 29.4608L6.32049 31.1614L6.08765 31.5033ZM22.9953 31.1305C23.7251 31.127 24.298 31.0758 24.6191 30.9857C24.8919 30.909 25.124 30.855 25.1347 30.8657C25.1455 30.8765 24.6578 31.3789 24.0509 31.9822L22.9476 33.0792L21.8319 31.9647L20.7162 30.8501L21.2919 30.9929C21.6728 31.0875 22.2493 31.1341 22.9953 31.1305ZM21.3029 33.5952L22.9051 35.1901L24.5209 33.5816L26.1367 31.9733L28.9639 32.4832C31.2535 32.8962 31.8965 33.0442 32.3448 33.2615C32.958 33.5588 33.5131 34.0501 33.8671 34.609C34.0624 34.9174 35.2645 38.2538 35.2645 38.4877C35.2645 38.5293 31.8032 38.5634 27.5726 38.5634H19.8808L18.4846 37.1699C17.7167 36.4034 17.0532 35.7763 17.01 35.7763C16.9669 35.7763 16.3574 36.2956 15.6557 36.9305C13.6151 38.7763 13.5428 38.8332 13.2336 38.8332C13.0023 38.8332 12.7994 38.6802 12.0302 37.9258L11.1049 37.0185L11.4543 35.9822C11.8503 34.8075 12.2041 34.1994 12.7514 33.7524C13.4481 33.1835 13.9626 33.0224 16.7284 32.5066C18.1657 32.2387 19.4224 32.0151 19.5212 32.0099C19.6403 32.0035 20.2403 32.5374 21.3029 33.5952ZM19.9062 41.5973L19.4353 42.0726L17.7195 40.3578L16.0037 38.6429L16.4917 38.1912L16.9796 37.7396L18.6784 39.4309L20.3772 41.1221L19.9062 41.5973Z" fill="url(#paint0_linear_1107_9217)"/>
<defs>
<linearGradient id="paint0_linear_1107_9217" x1="0" y1="0" x2="51.506" y2="7.33442" gradientUnits="userSpaceOnUse">
<stop stop-color="#F11F22"/>
<stop offset="1" stop-color="#F2891D"/>
</linearGradient>
</defs>
</svg>
