<svg width="46" height="46" viewBox="0 0 46 46" fill="none" xmlns="http://www.w3.org/2000/svg">
<path fill-rule="evenodd" clip-rule="evenodd" d="M4.47935 5.91621V11.8325L3.67757 11.8894C3.22454 11.9215 2.66136 12.0264 2.38275 12.1306C1.4346 12.485 0.634703 13.2822 0.234441 14.2714L0.0290057 14.7793L0.00491084 26.4073C-0.0110924 34.0922 0.0121033 38.2052 0.0732394 38.5362C0.278135 39.6462 1.08567 40.68 2.1418 41.184L2.72619 41.4629L8.03064 41.5078L13.3351 41.5527L13.3598 43.0127L13.3845 44.4727H11.8989H10.4132V45.2363V46H23H35.5868V45.2363V44.4727H34.1012H32.6155L32.6402 43.0127L32.6649 41.5527L37.9694 41.5078L43.2738 41.4629L43.8582 41.184C44.9143 40.68 45.7219 39.6462 45.9268 38.5362C45.9879 38.2052 46.0111 34.0922 45.9951 26.4073L45.971 14.7793L45.7656 14.2714C45.3653 13.2822 44.5654 12.485 43.6173 12.1306C43.3386 12.0264 42.7755 11.9215 42.3224 11.8894L41.5206 11.8325V5.91621V0H23H4.47935V5.91621ZM40.0821 3.72852V5.92969H23H5.91785V3.72852V1.52734H23H40.0821V3.72852ZM7.44625 3.72852V4.49219H8.1655H8.88475V3.72852V2.96484H8.1655H7.44625V3.72852ZM10.4132 3.72852V4.49219H11.1324H11.8517V3.72852V2.96484H11.1324H10.4132V3.72852ZM13.3801 3.72852V4.49219H14.0993H14.8185V3.72852V2.96484H14.0993H13.3801V3.72852ZM40.0821 18.5527V29.6484H32.3689H24.6558L24.4122 29.1523C24.2784 28.8795 24.1688 28.6395 24.1688 28.6191C24.1688 28.5987 24.5734 28.4495 25.0678 28.2875L25.9669 27.9931V27.3383V26.6836H26.2772C26.8317 26.6836 27.5255 26.4947 28.263 26.143C29.4708 25.5671 30.4029 24.5136 30.8942 23.169L31.1365 22.5059L31.1634 17.7559L31.1904 13.006L32.1363 14.5215C32.6564 15.3551 33.1809 16.1886 33.3016 16.3737L33.5211 16.7102L34.0682 16.3737C34.3692 16.1886 34.6354 15.9883 34.6597 15.9288C34.6968 15.8381 30.4658 8.9426 30.4131 9.00764C30.2778 9.17448 26.1467 15.8485 26.1467 15.9002C26.1467 16.0231 27.34 16.7267 27.3968 16.6373C27.4263 16.5908 27.9358 15.774 28.5292 14.822L29.6081 13.0912L29.6314 17.5705C29.6573 22.5355 29.6521 22.59 29.0764 23.4868C28.45 24.4625 27.5532 25.0239 26.349 25.1942L25.9669 25.2482V24.5924V23.9366L25.0678 23.6422C24.5734 23.4802 24.1688 23.3293 24.1688 23.3068C24.1688 23.2844 24.3544 22.8965 24.5814 22.445L24.9939 21.6241L23.5616 20.1927L22.1292 18.7614L21.3077 19.1736C20.8559 19.4004 20.4678 19.5859 20.4453 19.5859C20.4228 19.5859 20.2716 19.1809 20.1092 18.6859L19.814 17.7858L17.7958 17.8099L15.7776 17.834L15.5004 18.6587C15.3479 19.1124 15.197 19.5091 15.165 19.5404C15.1331 19.5716 14.7323 19.4091 14.2743 19.1792L13.4417 18.7614L12.0093 20.1927L10.577 21.6241L10.9951 22.4562C11.2252 22.9138 11.3877 23.3144 11.3565 23.3463C11.3253 23.3782 10.9282 23.529 10.4743 23.6814L9.64895 23.9585V25.9724V27.9863L10.4581 28.2721C10.9031 28.4293 11.3015 28.5721 11.3433 28.5895C11.3851 28.6068 11.3059 28.8522 11.1673 29.1347L10.9151 29.6484H8.41652H5.91785V18.5527V7.45703H23H40.0821V18.5527ZM22.2744 9.01205C21.7228 9.16784 21.0959 9.545 20.7924 9.90348C20.0329 10.8008 19.8412 12.1409 20.3298 13.1354C21.2071 14.9206 23.4982 15.373 24.969 14.0515C25.6369 13.4514 25.9219 12.8091 25.9219 11.9043C25.9218 11.0893 25.6858 10.4526 25.1634 9.85811C24.537 9.1452 23.1948 8.75213 22.2744 9.01205ZM8.1406 9.68282L7.62688 10.2017L8.48071 11.0513L9.33446 11.9009L8.47954 12.7584L7.62463 13.616L8.10014 14.0853C8.36177 14.3435 8.61413 14.5547 8.66115 14.5547C8.70809 14.5547 9.11221 14.1908 9.55914 13.746L10.3718 12.9373L11.1773 13.746C11.6203 14.1908 12.0254 14.5547 12.0776 14.5547C12.1298 14.5547 12.3925 14.3321 12.6614 14.0599L13.1504 13.5651L12.3006 12.7123L11.4507 11.8594L12.3015 11.0055L13.1525 10.1515L12.6373 9.63673L12.1222 9.12193L11.2676 9.9723L10.4132 10.8226L9.57981 9.99332C9.12147 9.53727 8.7258 9.16406 8.70044 9.16406C8.67509 9.16406 8.42317 9.39748 8.1406 9.68282ZM23.8714 10.6717C24.2351 10.9306 24.4385 11.3807 24.4385 11.927C24.4385 13.3511 22.5721 13.8633 21.7562 12.6631C21.5798 12.4036 21.5512 12.2656 21.5792 11.8106C21.6177 11.1848 21.8403 10.8007 22.3004 10.5663C22.7092 10.3579 23.5055 10.4114 23.8714 10.6717ZM4.47935 22.2812V31.1758H7.96178H11.4443L12.4437 32.1717L13.4432 33.1676L14.2751 32.7501C14.7326 32.5205 15.1331 32.3581 15.165 32.3893C15.197 32.4206 15.3479 32.8173 15.5004 33.2709L15.7776 34.0957L17.7958 34.1198L19.814 34.1439L20.1092 33.2438C20.2716 32.7488 20.4228 32.3438 20.4453 32.3438C20.4678 32.3438 20.8556 32.5291 21.307 32.7557L22.1277 33.1676L23.1272 32.1717L24.1266 31.1758H32.8237H41.5206V22.272V13.3683L42.2696 13.3999C42.9152 13.4272 43.0792 13.4692 43.4585 13.7035C43.731 13.872 44.002 14.1428 44.1705 14.4152L44.4426 14.855L44.4661 25.2165L44.4898 35.5781H23.0011H1.51246V25.3331C1.51246 16.3375 1.52927 15.0478 1.6501 14.7588C2.03193 13.8456 2.75855 13.3867 3.82268 13.3867H4.47935V22.2812ZM19.0385 20.1529L19.3173 20.9892L19.7744 21.1822L20.2316 21.3753L21.0453 20.9668L21.859 20.5585L22.5273 21.2263L23.1955 21.8941L22.7982 22.6942L22.4008 23.4941L22.5863 23.9631L22.7719 24.432L23.6276 24.7268L24.4834 25.0215V25.9648V26.9082L23.6276 27.2029L22.7719 27.4977L22.5863 27.9666L22.4008 28.4355L22.7982 29.2355L23.1955 30.0356L22.5273 30.7034L21.859 31.3712L21.0584 30.9705L20.2579 30.5699L19.7897 30.7486L19.3217 30.9274L19.0406 31.7703L18.7596 32.6133H17.795H16.8303L16.5685 31.7946L16.3067 30.9761L15.8261 30.7637L15.3455 30.5512L14.565 30.9463L13.7846 31.3414L13.0941 30.6604L12.4035 29.9794L12.8017 29.1872L13.1999 28.3949L12.9898 27.9202L12.7797 27.4454L11.956 27.1823L11.1324 26.9193V25.9648V25.0103L11.956 24.7474L12.7797 24.4843L12.9898 24.0095L13.1999 23.5347L12.8017 22.7425L12.4035 21.9503L13.0941 21.2692L13.7846 20.5883L14.5691 20.9854L15.3535 21.3825L15.8287 21.1725L16.3039 20.9625L16.5671 20.1395L16.8303 19.3164H17.795H18.7596L19.0385 20.1529ZM16.7066 22.4497C13.8091 23.3801 13.1917 27.1088 15.6317 28.941C17.4598 30.3136 20.1418 29.6187 21.1396 27.5138C21.4057 26.9524 21.4266 26.8394 21.4266 25.9648C21.4266 25.0903 21.4057 24.9773 21.1396 24.4158C20.343 22.7354 18.4422 21.8924 16.7066 22.4497ZM34.6428 22.4183C33.3377 22.9026 32.4978 24.321 32.714 25.6755C33.1024 28.1076 36.0969 29.0217 37.7813 27.2222C38.8353 26.0961 38.8107 24.2882 37.726 23.1712C37.1803 22.6094 36.5636 22.3451 35.7217 22.3126C35.2443 22.2942 34.8815 22.3297 34.6428 22.4183ZM18.777 23.9896C19.189 24.1997 19.6229 24.644 19.8193 25.0567C20.6118 26.7229 18.9869 28.5988 17.2007 28.0799C15.0172 27.4456 15.0966 24.3562 17.3106 23.8134C17.747 23.7064 18.368 23.7811 18.777 23.9896ZM36.05 23.8108C36.4704 23.9275 36.9957 24.5026 37.0769 24.935C37.2025 25.6041 36.7635 26.3984 36.1577 26.5982C34.8657 27.0243 33.7387 25.789 34.3216 24.5858C34.6559 23.8957 35.3058 23.6043 36.05 23.8108ZM44.4875 37.7373C44.4875 38.726 44.1082 39.3803 43.2738 39.8312L42.9142 40.0254H23H3.08581L2.72619 39.8312C1.89177 39.3803 1.51246 38.726 1.51246 37.7373V37.1055H23H44.4875V37.7373ZM31.1612 43.0127L31.1859 44.4727H23.0022H14.8185V43.0502C14.8185 42.2677 14.8457 41.6004 14.879 41.5672C14.9122 41.534 18.5837 41.5172 23.0379 41.5298L31.1365 41.5527L31.1612 43.0127Z" fill="url(#paint0_linear_1107_9210)"/>
<defs>
<linearGradient id="paint0_linear_1107_9210" x1="0" y1="0" x2="51.506" y2="7.33442" gradientUnits="userSpaceOnUse">
<stop stop-color="#F11F22"/>
<stop offset="1" stop-color="#F2891D"/>
</linearGradient>
</defs>
</svg>
