<svg width="46" height="46" viewBox="0 0 46 46" fill="none" xmlns="http://www.w3.org/2000/svg">
<path fill-rule="evenodd" clip-rule="evenodd" d="M23.5174 0.130899C22.9699 0.427881 22.9994 -0.219819 22.9994 11.4922C22.9994 23.2457 22.9673 22.5638 23.5358 22.8577C23.7671 22.9773 25.1116 22.9941 34.5042 22.9941C46.2607 22.9941 45.5786 23.0262 45.8726 22.4579C46.1877 21.8485 45.8909 18.8293 45.2828 16.4577C44.5583 13.6321 43.0094 10.5767 41.0951 8.19642C38.2213 4.6232 33.9204 1.83956 29.5375 0.716237C27.1596 0.106727 24.1088 -0.189806 23.5174 0.130899ZM18.7301 1.965C15.0376 2.25515 11.6846 3.56484 8.52862 5.9496C7.48214 6.74044 5.71958 8.48352 4.91281 9.52561C0.498847 15.2266 -1.05384 22.6281 0.71609 29.5304C1.07462 30.9288 1.50596 32.0647 2.27723 33.6423C4.43851 38.0626 7.92714 41.5504 12.3486 43.7111C14.9796 44.9969 17.1531 45.6113 20.1103 45.9053C22.826 46.1753 26.429 45.8518 28.6228 45.1411C30.21 44.627 32.3473 43.4187 33.7434 42.2465C34.4639 41.6415 34.6175 41.312 34.3949 40.8487C34.319 40.6907 31.2999 36.7611 27.6858 32.1162L21.1148 23.6711L21.0909 13.0904L21.067 2.50972L20.7936 2.23646C20.4663 1.9092 20.0824 1.8587 18.7301 1.965ZM27.3129 2.19162C30.5086 2.75342 33.5631 4.09788 36.2518 6.12617C37.1834 6.82886 39.1687 8.81366 39.8715 9.74495C42.2537 12.9012 43.7493 16.7168 43.9997 20.2763L44.0582 21.1078L34.495 21.085L24.9319 21.0621L24.909 11.5013L24.8861 1.94056L25.7179 1.99906C26.1754 2.03123 26.8932 2.11785 27.3129 2.19162ZM19.1346 13.9443C19.1346 23.4161 19.1443 24.0534 19.2935 24.3454C19.3809 24.5164 22.2964 28.3113 25.7724 32.7784C29.2484 37.2455 32.1095 40.9454 32.1303 41.0004C32.151 41.0555 31.7807 41.3594 31.3073 41.6758C28.681 43.4313 26.3926 44.0342 22.3253 44.0421C19.711 44.0471 18.1435 43.818 15.9057 43.1037C12.7907 42.1094 10.2592 40.5498 7.84922 38.1405C5.43933 35.7311 3.87936 33.2003 2.88482 30.086C2.18951 27.9088 1.94503 26.2902 1.94944 23.8926C1.96453 15.7053 6.32304 8.55208 13.2571 5.33461C14.9121 4.56658 17.2206 3.96552 18.8874 3.86856L19.1346 3.85419V13.9443ZM25.6509 24.9443C25.3768 25.0116 24.9923 25.415 24.9293 25.7017C24.8958 25.8537 24.9254 26.0628 25.0019 26.2161C25.1779 26.5689 37.4939 41.7992 37.794 42.0353C37.9422 42.1517 38.1645 42.2238 38.3761 42.2238C38.6678 42.2238 38.801 42.1476 39.2788 41.7071C39.587 41.4229 40.2152 40.7514 40.6749 40.2148C43.8546 36.5028 45.6962 31.9051 45.973 26.9872C46.0425 25.7528 45.9583 25.349 45.5774 25.0906C45.3463 24.9337 44.8764 24.9254 35.5828 24.9132C30.2191 24.9061 25.7498 24.9202 25.6509 24.9443ZM43.9918 27.6442C43.7261 31.0683 42.3241 34.8084 40.2276 37.6859C39.7732 38.3097 38.4419 39.9043 38.4095 39.8636C38.4002 39.852 36.0762 36.9715 33.2451 33.4626C30.4141 29.9536 28.0579 27.0321 28.0093 26.9703C27.9387 26.8806 29.5468 26.858 35.9869 26.858H44.0529L43.9918 27.6442Z" fill="url(#paint0_linear_1107_9071)"/>
<defs>
<linearGradient id="paint0_linear_1107_9071" x1="0" y1="0" x2="51.506" y2="7.33442" gradientUnits="userSpaceOnUse">
<stop stop-color="#F11F22"/>
<stop offset="1" stop-color="#F2891D"/>
</linearGradient>
</defs>
</svg>
