<svg width="28" height="24" viewBox="0 0 28 24" fill="none" xmlns="http://www.w3.org/2000/svg">
<path fill-rule="evenodd" clip-rule="evenodd" d="M1.49776 0.075551C1.0304 0.227078 0.623869 0.545234 0.346867 0.976373C-0.020171 1.54777 -0.0102703 1.36288 0.00608507 7.32839L0.0208541 12.7042L0.148579 13.0302C0.224886 13.2249 0.3938 13.4869 0.568239 13.681C1.06087 14.2292 1.59934 14.4229 2.63022 14.4229C3.15993 14.4229 3.16776 14.4249 3.1403 14.5497C3.01656 15.1118 2.55353 17.8854 2.54997 18.0857C2.54439 18.4006 2.66818 18.6524 2.92932 18.8576C3.19018 19.0626 3.67111 19.0826 3.91425 18.8986C3.9992 18.8343 4.93173 17.8073 5.98657 16.6164L7.90446 14.4511L13.0155 14.4229L18.1266 14.3947L18.4429 14.2632C19.0385 14.0155 19.4542 13.5872 19.6947 12.9737L19.8223 12.6478V7.23817C19.8223 2.76331 19.8091 1.78145 19.7456 1.55628C19.5643 0.913035 19.026 0.331665 18.4029 0.106037C18.1104 0.000153787 17.8722 -0.0027763 9.90928 0.000886494C3.48622 0.00381673 1.6693 0.0199892 1.49776 0.075551ZM18.1374 1.29859C18.2954 1.37736 18.4196 1.49638 18.5103 1.65574L18.6463 1.89478V7.17827C18.6463 13.0587 18.6697 12.6919 18.2736 13.0032L18.0805 13.155L12.7976 13.1832C9.89205 13.1987 7.47419 13.2321 7.42452 13.2575C7.37491 13.2829 6.56469 14.1767 5.62412 15.244C4.6835 16.3111 3.90407 17.1742 3.8921 17.1618C3.88006 17.1494 3.99488 16.433 4.14722 15.5697C4.29956 14.7065 4.42422 13.9055 4.42422 13.7898C4.42422 13.637 4.38057 13.529 4.26466 13.3954L4.10515 13.2113L2.93818 13.1832C2.16297 13.1645 1.73193 13.1318 1.65409 13.0859C1.46915 12.9766 1.26091 12.6915 1.19931 12.463C1.16228 12.3256 1.14352 10.4955 1.14489 7.15365C1.14713 1.75734 1.14533 1.7983 1.39684 1.50691C1.45236 1.44256 1.59622 1.34338 1.71656 1.28647C1.92568 1.18752 2.28905 1.1829 9.91798 1.18172L17.9006 1.18048L18.1374 1.29859ZM3.79079 5.4713C3.51904 5.6071 3.49432 5.74961 3.49432 7.17923C3.49432 8.67224 3.51822 8.78956 3.85173 8.93314C4.11905 9.04816 6.3704 9.04816 6.63772 8.93314C6.97122 8.78956 6.99513 8.67224 6.99513 7.17923C6.99513 5.73389 6.97128 5.60338 6.68268 5.46792C6.51393 5.38874 3.95002 5.39167 3.79079 5.4713ZM8.42373 5.49868C8.176 5.67743 8.14383 5.87449 8.14383 7.21377C8.14383 9.07684 8.08207 9.01322 9.89057 9.01322C11.1906 9.01322 11.3819 8.98008 11.5554 8.72487C11.6322 8.61195 11.6446 8.3946 11.6446 7.16497V5.7362L11.4848 5.57149L11.3249 5.40678H9.93794C8.74433 5.40678 8.53335 5.41957 8.42373 5.49868ZM13.0079 5.57149L12.848 5.7362V7.16497C12.848 8.75057 12.8544 8.78207 13.209 8.93467C13.489 9.05514 15.7439 9.0468 15.9945 8.92435C16.3175 8.7664 16.3489 8.61521 16.3489 7.21377C16.3489 5.87449 16.3167 5.67743 16.069 5.49868C15.9593 5.41957 15.7484 5.40678 14.5547 5.40678H13.1678L13.0079 5.57149ZM20.9984 5.99649V6.59014L23.5283 6.59138C25.8727 6.59251 26.0745 6.60028 26.2813 6.69698C26.5469 6.82129 26.721 7.03345 26.7975 7.32602C26.8343 7.46684 26.8483 9.41737 26.8387 13.0283L26.8239 18.5166L26.6699 18.7564C26.3886 19.1942 26.3086 19.21 24.3709 19.2115C22.5383 19.2128 22.4522 19.2263 22.3158 19.5346C22.2318 19.7248 22.2399 19.8921 22.3932 21.1286C22.4682 21.733 22.5297 22.2526 22.5298 22.2834C22.5299 22.3142 21.8715 21.6639 21.0668 20.8384C20.262 20.0128 19.5498 19.3092 19.4841 19.275C19.3998 19.2311 18.0836 19.2124 15.026 19.2115C10.9332 19.2103 10.675 19.2044 10.4686 19.1067C9.94861 18.8607 9.89965 18.678 9.89664 16.9728L9.89424 15.6062H9.31989H8.74553V17.0314C8.74553 18.1318 8.76473 18.5329 8.82977 18.7923C8.9843 19.4081 9.44258 19.9584 10.0354 20.24L10.3045 20.3679L14.6532 20.383L19.0018 20.398L20.6975 22.138C21.6302 23.095 22.447 23.906 22.5127 23.9402C22.6765 24.0256 23.0435 24.0184 23.2591 23.9256C23.4959 23.8237 23.7201 23.5408 23.7667 23.2852C23.7892 23.1618 23.7456 22.5887 23.6587 21.864C23.5785 21.1961 23.5133 20.5941 23.5138 20.5262L23.5146 20.4028L24.9778 20.3853C26.4277 20.368 26.4438 20.3665 26.7485 20.2194C27.3284 19.9393 27.758 19.4136 27.9152 18.7918C27.989 18.4999 28 17.7368 28 12.9014C28 8.06602 27.989 7.30292 27.9152 7.01108C27.758 6.38925 27.3284 5.86355 26.7485 5.58343L26.441 5.43495L23.7197 5.41889L20.9984 5.40277V5.99649ZM5.84642 7.18182V7.7735H5.24472H4.64302V7.18182V6.59014H5.24472H5.84642V7.18182ZM10.4959 7.18182V7.7735H9.92159H9.34724V7.18182V6.59014H9.92159H10.4959V7.18182ZM15.1455 7.18182V7.7735H14.5711H13.9968V7.18182V6.59014H14.5711H15.1455V7.18182ZM20.9984 8.98504V9.57673H23.3231H25.6479V8.98504V8.39336H23.3231H20.9984V8.98504ZM20.9984 11.4081V11.9998H23.3231H25.6479V11.4081V10.8164H23.3231H20.9984V11.4081ZM20.9984 13.803V14.4229H23.3231H25.6479V13.803V13.1832H23.3231H20.9984V13.803ZM11.0976 16.1979V16.7896H18.3728H25.6479V16.1979V15.6062H18.3728H11.0976V16.1979Z" fill="url(#paint0_linear_1107_8562)"/>
<defs>
<linearGradient id="paint0_linear_1107_8562" x1="0" y1="0" x2="31.128" y2="5.17139" gradientUnits="userSpaceOnUse">
<stop stop-color="#F11F22"/>
<stop offset="1" stop-color="#F2891D"/>
</linearGradient>
</defs>
</svg>
