<svg width="50" height="38" viewBox="0 0 50 38" fill="none" xmlns="http://www.w3.org/2000/svg">
<g clip-path="url(#clip0_239_115)">
<path d="M48.6245 28.762L48.8199 27.8314C48.8484 27.5922 48.8718 27.3523 48.8902 27.1119L48.8909 27.1025L48.8918 27.0932C48.9914 26.05 49.0409 24.584 48.9584 22.8049C48.859 21.0395 48.603 18.9855 48.0348 16.8301C47.7339 15.7525 47.3686 14.6521 46.9189 13.5821C46.8658 13.4681 46.8136 13.3552 46.7619 13.2435C46.2908 12.2257 45.8639 11.3035 45.2664 10.4563L45.241 10.4202L45.2188 10.382C44.6438 9.39144 43.8911 8.50155 43.0765 7.60164L43.0512 7.57363L43.028 7.54379C42.7158 7.14161 42.3354 6.78667 41.9002 6.42071C41.7618 6.30428 41.6074 6.17861 41.4466 6.04779C41.1463 5.80337 40.8238 5.54098 40.5423 5.28724C40.1711 4.97342 39.7638 4.7082 39.3221 4.44398C39.1843 4.36155 39.0353 4.27488 38.8816 4.18544C38.5691 4.00367 38.237 3.81047 37.9391 3.61822L37.9285 3.61134L37.918 3.6042C37.5757 3.37079 37.2062 3.19614 36.7977 3.02881C36.6758 2.97885 36.5375 2.92489 36.3921 2.86812C36.1086 2.75742 35.7977 2.63604 35.5269 2.51292C35.2905 2.41921 35.0783 2.33133 34.8839 2.25083C34.3411 2.02608 33.9374 1.85894 33.5359 1.7835L33.5033 1.77738L33.4712 1.76912C33.0855 1.6698 32.7499 1.58577 32.4386 1.5078C32.2023 1.4486 31.9798 1.39289 31.76 1.33664C31.7584 1.33624 31.7568 1.33584 31.7553 1.33544L31.2482 1.21094L30.4827 4.33379L30.877 4.50066L30.88 4.50192L32.1874 5.05027C32.5438 5.17278 32.8641 5.34719 33.1395 5.5108C33.269 5.58769 33.399 5.66864 33.5207 5.74447L33.5609 5.76948C33.6977 5.85462 33.8269 5.93455 33.958 6.0111L33.9874 6.02825L34.0155 6.04735C34.1713 6.15311 34.3212 6.23705 34.5092 6.34235C34.6111 6.39941 34.7242 6.46274 34.8554 6.5392C35.1849 6.73111 35.5752 6.97925 35.9296 7.33178C36.0982 7.48978 36.2752 7.63021 36.489 7.7998C36.5669 7.86158 36.6497 7.92724 36.7387 7.99902C37.0517 8.25149 37.4146 8.56018 37.7333 8.95096L37.7447 8.96495L37.7556 8.97934C37.8999 9.16982 38.0513 9.33281 38.2381 9.53377C38.3152 9.61678 38.3983 9.70626 38.4895 9.80684C38.7638 10.1094 39.0802 10.484 39.324 10.9538C39.3319 10.9659 39.3398 10.9781 39.3477 10.9904C39.7548 11.6198 40.225 12.3468 40.5417 13.1904C40.8586 13.8094 41.0526 14.4736 41.2139 15.0261L41.2184 15.0416L41.6561 16.54L40.1119 16.3111C40.0771 16.306 40.0427 16.3008 40.0086 16.2958C39.5001 16.2201 39.0754 16.1569 38.6384 16.1569H38.638C36.7127 16.1563 34.8252 16.7107 33.1937 17.7579C31.5621 18.8052 30.2525 20.3032 29.4188 22.0806C28.585 23.8581 28.2621 25.841 28.4884 27.7991C28.7146 29.7573 29.4806 31.6083 30.6954 33.1384C31.9101 34.6684 33.5234 35.8145 35.3473 36.4468C37.1709 37.0791 39.1324 37.1725 41.0056 36.7165C42.8789 36.2606 44.5895 35.2733 45.9384 33.8663C47.2876 32.4591 48.2197 30.6897 48.6245 28.762ZM21.2064 28.762L21.4026 27.8274C21.4314 27.5894 21.4555 27.3509 21.475 27.1119H21.4749L21.4762 27.0982C21.5758 26.0552 21.6253 24.5891 21.5428 22.8102C21.4434 21.0447 21.1874 18.9907 20.6192 16.8352C20.3183 15.7576 19.953 14.6572 19.5033 13.5872C19.4502 13.4732 19.398 13.3603 19.3463 13.2486C18.8752 12.2308 18.4483 11.3085 17.8508 10.4613L17.8253 10.4252L17.8032 10.387C17.2282 9.39652 16.4755 8.50662 15.6609 7.60671L15.6356 7.5787L15.6124 7.54886C15.3002 7.14668 14.9197 6.79174 14.4846 6.42579C14.3462 6.30935 14.1917 6.18367 14.031 6.05285C13.7306 5.80844 13.4082 5.54604 13.1267 5.29232C12.7554 4.9785 12.3482 4.71327 11.9065 4.44906C11.7687 4.36662 11.6197 4.27995 11.466 4.19052C11.1535 4.00875 10.8214 3.81555 10.5235 3.62329L10.5128 3.61642L10.5024 3.60927C10.1601 3.37587 9.7906 3.20122 9.3821 3.03389C9.2602 2.98393 9.1219 2.92997 8.9765 2.8732C8.693 2.7625 8.3822 2.64115 8.1114 2.51802C7.8749 2.42431 7.6627 2.33641 7.4683 2.25591C6.9255 2.03116 6.5218 1.86402 6.1203 1.78858L6.0877 1.78246L6.0556 1.77419C5.6698 1.67487 5.3343 1.59083 5.023 1.51286C4.7866 1.45365 4.5641 1.39794 4.3443 1.34169C4.3427 1.3413 4.3412 1.34091 4.3397 1.34051L3.8326 1.21601L3.0675 4.33738C3.1851 4.38658 3.315 4.44077 3.4563 4.49958L3.4589 4.50066L4.7693 5.05027C5.1257 5.17278 5.446 5.34719 5.7214 5.5108C5.8508 5.58763 5.9807 5.66852 6.1023 5.7443L6.1428 5.76948C6.2796 5.85462 6.4088 5.93455 6.5399 6.0111L6.5693 6.02825L6.5974 6.04735C6.7532 6.1531 6.9031 6.23705 7.0911 6.34234C7.193 6.3994 7.3061 6.46273 7.4373 6.5392C7.7668 6.73111 8.1571 6.97924 8.5115 7.33177C8.6801 7.48977 8.8571 7.63021 9.0709 7.79981C9.1488 7.86159 9.2316 7.92724 9.3206 7.99902C9.6336 8.25149 9.9965 8.56018 10.3152 8.95096L10.3266 8.96495L10.3375 8.97934C10.4818 9.16984 10.6332 9.33283 10.82 9.53381C10.8971 9.6168 10.9803 9.70627 11.0714 9.80684C11.3457 10.1094 11.6621 10.484 11.9059 10.9538C11.9138 10.9659 11.9217 10.9781 11.9296 10.9903C12.3367 11.6198 12.8069 12.3468 13.1236 13.1905C13.4405 13.8095 13.6345 14.4736 13.7958 15.0261L13.8003 15.0416L14.238 16.54L12.6938 16.3111C12.659 16.306 12.6246 16.3008 12.5905 16.2958C12.082 16.2201 11.6573 16.1569 11.2203 16.1569H11.2199C9.2946 16.1563 7.4071 16.7107 5.7756 17.7579C4.144 18.8052 2.8344 20.3032 2.0007 22.0806C1.1669 23.8581 0.844001 25.841 1.0703 27.7991C1.2965 29.7573 2.0625 31.6083 3.2773 33.1384C4.492 34.6684 6.1053 35.8145 7.9292 36.4468C9.7528 37.0791 11.7143 37.1725 13.5875 36.7165C15.4608 36.2606 17.1714 35.2733 18.5203 33.8663C19.8695 32.4591 20.8016 30.6897 21.2064 28.762Z" stroke="#661FFE" stroke-width="2"/>
</g>
<defs>
<clipPath id="clip0_239_115">
<rect width="50" height="38" fill="white" transform="matrix(-1 0 0 1 50 0)"/>
</clipPath>
</defs>
</svg>
