<svg width="40" height="36" viewBox="0 0 40 36" fill="none" xmlns="http://www.w3.org/2000/svg">
<path d="M3.22909 35.6251C2.39575 35.6251 1.68395 35.3299 1.09367 34.7397C0.503391 34.1494 0.208252 33.4376 0.208252 32.6042V7.39591C0.208252 6.56258 0.503391 5.85078 1.09367 5.2605C1.68395 4.67022 2.39575 4.37508 3.22909 4.37508H25.2603C25.1562 4.75703 25.0954 5.14765 25.078 5.54696C25.0607 5.94626 25.0694 6.33689 25.1041 6.71883H3.07284L19.9999 17.8126L27.7083 12.7605C27.986 13.0036 28.2551 13.2466 28.5155 13.4897C28.776 13.7327 29.0624 13.9411 29.3749 14.1147L19.9999 20.3126L2.552 8.80216V32.6042C2.552 32.8126 2.61277 32.9775 2.73429 33.099C2.85582 33.2206 3.02075 33.2813 3.22909 33.2813H36.7708C36.9791 33.2813 37.144 33.2206 37.2655 33.099C37.3871 32.9775 37.4478 32.8126 37.4478 32.6042V15.2605C37.8645 15.1563 38.2638 14.9914 38.6458 14.7657C39.0277 14.54 39.4096 14.3056 39.7916 14.0626V32.6042C39.7916 33.4376 39.4965 34.1494 38.9062 34.7397C38.3159 35.3299 37.6041 35.6251 36.7708 35.6251H3.22909ZM2.552 6.71883V7.18758V32.6042C2.552 32.8126 2.552 32.9775 2.552 33.099C2.552 33.2206 2.552 33.2813 2.552 33.2813C2.552 33.2813 2.552 33.2206 2.552 33.099C2.552 32.9775 2.552 32.8126 2.552 32.6042V6.71883ZM34.5833 11.5626C33.0902 11.5626 31.8228 11.0417 30.7812 10.0001C29.7395 8.95841 29.2187 7.69105 29.2187 6.198C29.2187 4.70494 29.7395 3.44626 30.7812 2.42196C31.8228 1.39765 33.0902 0.885498 34.5833 0.885498C36.0763 0.885498 37.3437 1.40633 38.3853 2.448C39.427 3.48966 39.9478 4.75703 39.9478 6.25008C39.9478 7.70841 39.427 8.95841 38.3853 10.0001C37.3437 11.0417 36.0763 11.5626 34.5833 11.5626Z" fill="white"/>
</svg>
