<svg width="41" height="40" viewBox="0 0 41 40" fill="none" xmlns="http://www.w3.org/2000/svg">
<path fill-rule="evenodd" clip-rule="evenodd" d="M20.6109 0.111502C19.8739 0.374875 19.3756 1.07608 19.3725 1.85409C19.3714 2.10199 19.4101 2.40849 19.4584 2.53514C19.5461 2.76507 19.5413 2.77046 16.5148 5.80131L13.4835 8.83724L13.0742 8.63137C11.8691 8.02525 10.4078 8.27463 9.43066 9.2532C8.45355 10.2317 8.20453 11.6953 8.80968 12.902L9.01517 13.3117L5.98889 16.3432C3.44256 18.8941 2.93774 19.3655 2.80566 19.3167C2.7193 19.2849 2.38244 19.2588 2.05713 19.2588C1.53491 19.2588 1.42101 19.2864 1.08407 19.4952C0.847774 19.6416 0.612487 19.8773 0.466291 20.1141C0.257919 20.4517 0.230225 20.5659 0.230225 21.0887C0.230225 21.5973 0.261196 21.7336 0.449987 22.0551C1.30532 23.5124 3.42266 23.244 3.93669 21.613C4.02492 21.3332 4.00971 20.873 3.89636 20.3916C3.85563 20.2188 4.05433 19.9936 5.61966 18.4384C6.59279 17.4716 7.36114 16.7508 7.32713 16.8368C7.29311 16.9227 7.07904 17.538 6.85148 18.204C6.1081 20.3796 5.83864 22.2171 5.90753 24.6412C6.00707 28.1479 7.03988 31.4089 8.96438 34.2937L9.53184 35.1442L9.02936 35.6394C8.43725 36.2229 8.2717 36.4998 8.34301 36.7876C8.40573 37.0406 11.1207 39.7976 11.436 39.9284C11.5571 39.9786 11.7357 39.9995 11.8331 39.9749C11.9305 39.9502 12.6859 39.2499 13.5119 38.4184C14.8805 37.0408 15.0136 36.8828 15.0136 36.6371C15.0136 36.3908 14.8802 36.234 13.4722 34.8252C11.6297 32.9816 11.6958 33.0095 10.922 33.7537L10.4324 34.2245L9.97574 33.5388C8.70132 31.6258 7.78397 29.3171 7.35942 26.9544C7.1232 25.6399 7.07202 23.3404 7.24818 21.9542C7.56163 19.4869 8.44403 16.9872 9.71502 14.9661L10.125 14.3144L10.4824 14.4792C10.7726 14.6129 10.9944 14.6445 11.6591 14.6466C12.4182 14.649 12.5161 14.6312 12.9949 14.404C14.2054 13.8296 14.8612 12.7885 14.855 11.4512C14.8535 11.1114 14.7944 10.7337 14.7016 10.4693C14.6186 10.2329 14.5495 10.0182 14.5481 9.99206C14.5436 9.90745 15.4189 9.3607 16.3001 8.89763C20.1199 6.89019 24.705 6.41196 28.8609 7.58757C30.5096 8.054 32.2937 8.87263 33.6802 9.79908L34.3649 10.2564L33.8948 10.7468C33.1502 11.5232 33.1228 11.4578 34.9661 13.3021C36.3703 14.7071 36.5314 14.8445 36.7754 14.8445C37.0189 14.8445 37.1801 14.708 38.5526 13.3405C39.3828 12.5133 40.0821 11.7568 40.1068 11.6593C40.1313 11.5617 40.1104 11.3828 40.0603 11.2615C39.9297 10.9458 37.1768 8.22674 36.9242 8.16392C36.6368 8.09251 36.3604 8.2583 35.7777 8.8513L35.2832 9.35453L34.4125 8.77106C32.8279 7.70937 30.6717 6.73917 28.8937 6.28782C26.9965 5.80615 25.7417 5.67013 23.6937 5.72396C21.4882 5.78201 19.4112 6.18734 17.6265 6.90808C17.2472 7.06129 16.9266 7.17653 16.9143 7.16411C16.9019 7.15177 17.6755 6.35735 18.6334 5.39879L20.3748 3.65597L20.8169 3.75512C22.0593 4.03349 23.1434 3.1486 23.1373 1.86112C23.1311 0.574572 21.8322 -0.325003 20.6109 0.111502ZM21.6872 1.42852C22.1317 1.81143 21.8379 2.57826 21.2468 2.57826C20.9152 2.57826 20.6306 2.27145 20.6306 1.91417C20.6306 1.33797 21.2511 1.0528 21.6872 1.42852ZM12.2495 9.64665C13.6304 10.0593 14.0798 11.8612 13.0573 12.8852C12.6831 13.26 12.2521 13.4346 11.6981 13.4357C10.8092 13.4375 10.0692 12.9009 9.82353 12.0762C9.67882 11.5904 9.67983 11.4546 9.83219 10.9409C10.0009 10.3717 10.4728 9.87955 11.0364 9.6847C11.5575 9.50454 11.7533 9.49836 12.2495 9.64665ZM37.7158 10.5869L38.6108 11.4858L37.695 12.403L36.7792 13.3201L35.8634 12.403L34.9476 11.4858L35.8427 10.5869C36.3349 10.0925 36.7564 9.68798 36.7792 9.68798C36.8021 9.68798 37.2235 10.0925 37.7158 10.5869ZM16.1838 13.4139C15.994 13.4814 13.6817 15.8039 13.6006 16.0085C13.5383 16.166 14.0511 17.5101 16.8089 24.4167C18.6142 28.9381 20.1337 32.6939 20.1854 32.7629C20.2371 32.8318 21.8242 33.4809 23.7121 34.2053L27.1446 35.5224L28.2368 37.6639C29.3781 39.9017 29.5095 40.0824 29.9195 39.9774C30.0293 39.9493 32.2176 37.8155 35.1214 34.9051C40.4563 29.5582 40.3254 29.7088 39.9947 29.2999C39.9182 29.2053 38.9117 28.6477 37.758 28.0607L35.6604 26.9935L34.3454 23.5558C33.6223 21.6651 32.9742 20.0758 32.9054 20.024C32.784 19.9326 16.4134 13.3538 16.3383 13.3662C16.3177 13.3696 16.2482 13.3911 16.1838 13.4139ZM24.3362 17.889C28.5411 19.5747 32.0006 20.9849 32.024 21.0228C32.0475 21.0606 32.6069 22.5009 33.2671 24.2235L34.4675 27.3552L30.9867 30.8413L27.5058 34.3272L24.3787 33.1251C22.6587 32.4639 21.2206 31.9037 21.1827 31.8802C21.145 31.8567 19.7191 28.345 18.0143 24.0764L14.9145 16.3153L15.0821 16.1475L15.2498 15.9796L19.2756 20.0115L23.3015 24.0433L23.1013 24.3856C22.6879 25.092 22.5438 26.2434 22.7651 27.0716C23.2537 28.9009 25.07 30.0926 26.8923 29.7797C28.4474 29.5126 29.66 28.2982 29.9266 26.7408C30.2391 24.9162 29.0513 23.0946 27.2329 22.6097C26.3943 22.3861 25.2492 22.5284 24.5406 22.9442L24.1988 23.1447L20.1758 19.1156L16.1527 15.0865L16.3017 14.9217C16.3837 14.831 16.5048 14.7719 16.5709 14.7904C16.6369 14.8089 20.1313 16.2033 24.3362 17.889ZM2.57412 20.6616C2.96114 21.0491 2.68693 21.7198 2.14154 21.7198C1.61526 21.7198 1.30508 20.9949 1.67346 20.626C1.89767 20.4015 2.33158 20.4186 2.57412 20.6616ZM27.1335 23.8766C27.6359 24.0481 28.2863 24.6587 28.5171 25.1755C28.7625 25.725 28.77 26.595 28.5338 27.1202C28.3026 27.6345 27.8634 28.0876 27.3546 28.3369C26.7608 28.6279 25.9376 28.6405 25.3293 28.368C24.8133 28.1369 24.2036 27.4855 24.0324 26.9823C23.89 26.5638 23.87 25.8805 23.9877 25.4562C24.1741 24.7841 24.9149 24.0275 25.5738 23.8362C25.9691 23.7216 26.7373 23.7414 27.1335 23.8766ZM37.1693 29.2117C37.7914 29.5265 38.326 29.8076 38.3572 29.8363C38.3883 29.865 36.5204 31.7845 34.2061 34.1019C31.8918 36.4194 29.9833 38.2994 29.965 38.2798C29.9466 38.2601 29.5911 37.5616 29.1751 36.7276L28.4185 35.211L31.8684 31.7554L35.3183 28.2997L35.6782 28.4694C35.8761 28.5628 36.5471 28.8968 37.1693 29.2117ZM12.5956 37.5396L11.6591 38.4777L10.7433 37.5604L9.82744 36.6432L10.7616 35.7053L11.6957 34.7672L12.614 35.6845L13.5323 36.6017L12.5956 37.5396Z" fill="white"/>
</svg>
