<svg width="44" height="40" viewBox="0 0 44 40" fill="none" xmlns="http://www.w3.org/2000/svg">
<path fill-rule="evenodd" clip-rule="evenodd" d="M3.86601 0.132034C2.00585 0.544962 0.42132 2.21145 0.0904391 4.10326C0.0275288 4.46291 -0.00100436 9.48176 2.69567e-05 20.0328C0.0013161 32.9064 0.0213408 35.5333 0.122066 36.0225C0.42493 37.4939 1.45023 38.8275 2.76396 39.459C3.1574 39.6481 3.70873 39.846 3.98925 39.8988C4.70661 40.0337 39.2934 40.0337 40.0108 39.8988C41.87 39.549 43.4853 37.93 43.8779 36.0225C43.9787 35.5333 43.9987 32.9064 44 20.0328C44.001 9.48176 43.9725 4.46291 43.9096 4.10326C43.6607 2.68013 42.5912 1.21931 41.3308 0.580627C40.1032 -0.0415085 41.376 -0.00354326 21.957 0.00256304C7.26076 0.0071649 4.33431 0.0281387 3.86601 0.132034ZM39.7077 1.58764C40.8233 1.80543 41.7313 2.53234 42.223 3.60104L42.4974 4.1976L42.5239 7.36137L42.5503 10.5251H22H1.44972L1.4761 7.36137L1.50257 4.1976L1.77699 3.60104C2.25328 2.56571 3.18121 1.80463 4.2249 1.59312C4.7715 1.48232 39.1414 1.47701 39.7077 1.58764ZM4.90996 3.71891C3.46302 4.00653 2.66323 5.64842 3.29732 7.02951C3.97472 8.50493 5.87699 8.82476 6.9854 7.64961C7.34507 7.26818 7.6475 6.5202 7.6475 6.01179C7.6475 5.437 7.34258 4.7438 6.90865 4.33185C6.3116 3.7652 5.66875 3.56803 4.90996 3.71891ZM11.5149 3.89485C10.6675 4.28928 10.1407 5.11903 10.1426 6.05604C10.1467 8.14404 12.5778 9.17362 14.0134 7.69536C15.4493 6.21675 14.4462 3.71475 12.4173 3.71475C12.0828 3.71475 11.7659 3.77794 11.5149 3.89485ZM18.6529 3.86378C18.4353 3.94281 18.099 4.17954 17.8722 4.413C16.437 5.89081 17.4373 8.39413 19.4647 8.39838C20.7326 8.40104 21.7384 7.36491 21.7384 6.05604C21.7384 4.42282 20.1735 3.31094 18.6529 3.86378ZM5.95013 5.49072C6.20323 5.76736 6.24568 6.04666 6.08858 6.40162C5.96052 6.691 5.47856 6.92561 5.16005 6.85357C4.43048 6.68862 4.30801 5.62904 4.97862 5.28434C5.3505 5.09319 5.64339 5.15549 5.95013 5.49072ZM13.0113 5.48762C13.3226 5.86851 13.3118 6.29905 12.9826 6.63808C12.7966 6.82959 12.6498 6.89676 12.4173 6.89676C11.7025 6.89676 11.3238 5.96727 11.8274 5.44859C12.1662 5.09982 12.709 5.1177 13.0113 5.48762ZM20.0299 5.47399C20.3697 5.82391 20.3801 6.32817 20.0546 6.66348C19.5509 7.18208 18.6482 6.79216 18.6482 6.05604C18.6482 5.81665 18.7135 5.6655 18.8994 5.47399C19.2461 5.11699 19.6832 5.11699 20.0299 5.47399ZM42.5404 23.6926C42.5404 36.5672 42.5673 35.9168 41.9965 36.8352C41.6214 37.4384 41.1727 37.8343 40.4818 38.1714L39.9191 38.446H22H4.08086L3.51819 38.1714C2.8273 37.8343 2.37859 37.4384 2.00353 36.8352C1.4327 35.9168 1.4596 36.5672 1.4596 23.6926V12.0296H22H42.5404V23.6926ZM22.8171 16.5651C22.6077 16.7515 22.4971 17.2349 21.087 24.1277C19.7204 30.8079 19.5913 31.5141 19.6954 31.7377C19.9358 32.2544 20.57 32.3125 20.8932 31.8474C20.9906 31.7073 21.5569 29.1181 22.5099 24.4558C23.3166 20.509 23.9767 17.2154 23.9767 17.1368C23.9767 16.8785 23.7897 16.5643 23.5765 16.4642C23.2639 16.3176 23.0657 16.3439 22.8171 16.5651ZM16.927 19.5271C16.4527 19.8668 12.1109 23.7338 12.0309 23.8877C11.8708 24.1956 11.9357 24.4927 12.2284 24.7924C12.6963 25.2716 16.8448 28.8791 17.0718 29.0042C17.3311 29.1471 17.83 29.0068 17.9614 28.7543C18.1192 28.4505 18.0584 28.0633 17.8103 27.7921C17.6803 27.65 16.7424 26.808 15.7262 25.921C14.7099 25.034 13.8674 24.2794 13.854 24.244C13.8405 24.2087 14.7027 23.4137 15.7698 22.4775C16.8371 21.5413 17.7859 20.6916 17.8784 20.5894C18.1178 20.3248 18.098 19.8622 17.8356 19.5921C17.5866 19.3357 17.2299 19.3101 16.927 19.5271ZM26.1644 19.5921C25.902 19.8622 25.8822 20.3248 26.1216 20.5894C26.2141 20.6916 27.1629 21.5413 28.2302 22.4775C29.2973 23.4137 30.1595 24.2087 30.146 24.244C30.1326 24.2794 29.2901 25.034 28.2738 25.921C27.2576 26.808 26.3197 27.65 26.1897 27.7921C25.9416 28.0633 25.8808 28.4505 26.0386 28.7543C26.17 29.0068 26.6689 29.1471 26.9282 29.0042C27.1552 28.8791 31.3037 25.2716 31.7716 24.7924C32.0643 24.4927 32.1292 24.1956 31.9691 23.8877C31.8891 23.7338 27.5473 19.8668 27.073 19.5271C26.7701 19.3101 26.4133 19.3357 26.1644 19.5921Z" fill="white"/>
</svg>
