<svg width="40" height="40" viewBox="0 0 40 40" fill="none" xmlns="http://www.w3.org/2000/svg">
<path d="M21.1978 18.802H37.3958C37.118 14.4964 35.4339 10.7725 32.3437 7.63013C29.2534 4.48777 25.5381 2.81242 21.1978 2.60409V18.802ZM18.802 37.3958V2.60409C14.2534 2.88186 10.4079 4.70478 7.26554 8.07283C4.12318 11.4409 2.552 15.4166 2.552 19.9999C2.552 24.5833 4.12318 28.5589 7.26554 31.927C10.4079 35.2951 14.2534 37.118 18.802 37.3958ZM21.1978 37.3958C25.5381 37.1874 29.2447 35.5121 32.3176 32.3697C35.3905 29.2273 37.0833 25.5034 37.3958 21.1978H21.1978V37.3958ZM19.9999 39.7916C17.2569 39.7916 14.6787 39.2708 12.2655 38.2291C9.85235 37.1874 7.76034 35.7812 5.9895 34.0103C4.21867 32.2395 2.81242 30.1475 1.77075 27.7343C0.729085 25.3211 0.208252 22.743 0.208252 19.9999C0.208252 17.2569 0.729085 14.6787 1.77075 12.2655C2.81242 9.85235 4.21867 7.76034 5.9895 5.9895C7.76034 4.21867 9.85235 2.81242 12.2655 1.77075C14.6787 0.729085 17.2569 0.208252 19.9999 0.208252C22.743 0.208252 25.3124 0.729085 27.7083 1.77075C30.1041 2.81242 32.1961 4.22735 33.9843 6.01554C35.7725 7.80374 37.1874 9.89575 38.2291 12.2916C39.2708 14.6874 39.7916 17.2569 39.7916 19.9999C39.7916 22.743 39.2708 25.3124 38.2291 27.7083C37.1874 30.1041 35.7812 32.1961 34.0103 33.9843C32.2395 35.7725 30.1475 37.1874 27.7343 38.2291C25.3211 39.2708 22.743 39.7916 19.9999 39.7916Z" fill="white"/>
</svg>
