<svg width="36" height="40" viewBox="0 0 36 40" fill="none" xmlns="http://www.w3.org/2000/svg">
<path d="M13 28.7708L14.7187 27.1042L9.66663 22L14.7187 16.9479L13 15.2812L6.28121 22L13 28.7708ZM23 28.7708L29.7708 22L23.052 15.2812L21.3333 16.9479L26.3854 22L21.2812 27.1042L23 28.7708ZM3.31246 39.7083C2.47913 39.7083 1.76732 39.4132 1.17704 38.8229C0.586765 38.2326 0.291626 37.5208 0.291626 36.6875V7.3125C0.291626 6.47917 0.586765 5.76736 1.17704 5.17708C1.76732 4.58681 2.47913 4.29167 3.31246 4.29167H13.3125C13.4861 3.18056 14.0069 2.20833 14.875 1.375C15.743 0.541666 16.802 0.125 18.052 0.125C19.2673 0.125 20.309 0.541666 21.177 1.375C22.0451 2.20833 22.5486 3.18056 22.6875 4.29167H32.6875C33.5208 4.29167 34.2326 4.58681 34.8229 5.17708C35.4132 5.76736 35.7083 6.47917 35.7083 7.3125V36.6875C35.7083 37.5208 35.4132 38.2326 34.8229 38.8229C34.2326 39.4132 33.5208 39.7083 32.6875 39.7083H3.31246ZM18 5.85417C18.4513 5.85417 18.8593 5.68056 19.2239 5.33333C19.5885 4.98611 19.7708 4.58681 19.7708 4.13542C19.7708 3.64931 19.5885 3.23264 19.2239 2.88542C18.8593 2.53819 18.4513 2.36458 18 2.36458C17.5138 2.36458 17.1059 2.53819 16.776 2.88542C16.4461 3.23264 16.2812 3.64931 16.2812 4.13542C16.2812 4.58681 16.4461 4.98611 16.776 5.33333C17.1059 5.68056 17.5138 5.85417 18 5.85417ZM3.31246 37.3646H32.6875C32.8611 37.3646 33.0173 37.2951 33.1562 37.1562C33.2951 37.0174 33.3645 36.8611 33.3645 36.6875V7.3125C33.3645 7.13889 33.2951 6.98264 33.1562 6.84375C33.0173 6.70486 32.8611 6.63542 32.6875 6.63542H3.31246C3.13885 6.63542 2.9826 6.70486 2.84371 6.84375C2.70482 6.98264 2.63538 7.13889 2.63538 7.3125V36.6875C2.63538 36.8611 2.70482 37.0174 2.84371 37.1562C2.9826 37.2951 3.13885 37.3646 3.31246 37.3646ZM2.63538 6.58333C2.63538 6.58333 2.63538 6.6441 2.63538 6.76562C2.63538 6.88715 2.63538 7.03472 2.63538 7.20833V36.4271C2.63538 36.566 2.63538 36.7049 2.63538 36.8438C2.63538 36.9826 2.63538 37.0521 2.63538 37.0521C2.63538 37.0521 2.63538 36.9826 2.63538 36.8438C2.63538 36.7049 2.63538 36.566 2.63538 36.4271V7.20833C2.63538 7.03472 2.63538 6.88715 2.63538 6.76562C2.63538 6.6441 2.63538 6.58333 2.63538 6.58333Z" fill="white"/>
</svg>
