<svg width="35" height="38" viewBox="0 0 35 38" fill="none" xmlns="http://www.w3.org/2000/svg">
<path d="M23.1667 37.2291C22.8542 37.2291 22.5764 37.1162 22.3334 36.8905C22.0903 36.6648 21.9688 36.3784 21.9688 36.0312C21.9688 35.6839 22.0903 35.4062 22.3334 35.1978C22.5764 34.9895 22.8542 34.8853 23.1667 34.8853C25.2848 34.8853 27.073 34.4513 28.5313 33.5833C29.9896 32.7152 30.7188 31.6735 30.7188 30.4583C30.7188 29.5555 30.1806 28.6874 29.1042 27.8541C28.0278 27.0208 26.5521 26.3958 24.6771 25.9791L26.6042 24.1041C28.7917 24.7291 30.415 25.6058 31.474 26.7343C32.533 27.8628 33.0625 29.1041 33.0625 30.4583C33.0625 32.611 32.0469 34.2777 30.0157 35.4582C27.9844 36.6388 25.7014 37.2291 23.1667 37.2291ZM6.86462 22.177C4.71185 21.6562 3.15803 20.9096 2.20317 19.9374C1.2483 18.9652 0.770874 17.9583 0.770874 16.9166C0.770874 15.7708 1.22226 14.7464 2.12504 13.8437C3.02782 12.9409 4.98962 11.9166 8.01046 10.7708C10.3368 9.86797 11.8559 9.13013 12.5678 8.55721C13.2796 7.98429 13.6355 7.31589 13.6355 6.552C13.6355 5.6145 13.2101 4.80721 12.3594 4.13013C11.5087 3.45304 10.25 3.1145 8.58337 3.1145C7.61115 3.1145 6.76046 3.25339 6.03129 3.53117C5.30212 3.80895 4.65976 4.22561 4.10421 4.78117C3.89587 4.9895 3.62678 5.11103 3.29692 5.14575C2.96705 5.18047 2.6806 5.11103 2.43754 4.93742C2.12504 4.72909 1.96879 4.45999 1.96879 4.13013C1.96879 3.80027 2.0556 3.51381 2.22921 3.27075C2.78476 2.54158 3.64414 1.94263 4.80733 1.47388C5.97053 1.00513 7.22921 0.770752 8.58337 0.770752C10.8056 0.770752 12.6025 1.30027 13.974 2.35929C15.3455 3.41832 16.0313 4.81589 16.0313 6.552C16.0313 7.83672 15.5452 8.94783 14.573 9.88533C13.6007 10.8228 11.7257 11.8298 8.94796 12.9062C6.65629 13.8089 5.11115 14.5468 4.31254 15.1197C3.51393 15.6926 3.11462 16.2916 3.11462 16.9166C3.11462 17.5416 3.58337 18.1319 4.52087 18.6874C5.45837 19.243 6.88199 19.7812 8.79171 20.302L6.86462 22.177ZM31.9167 13.427L26.3959 7.90617L28.5313 5.77075C29.0521 5.24992 29.6337 4.98082 30.2761 4.96346C30.9184 4.9461 31.5 5.2152 32.0209 5.77075L34.0521 7.802C34.6077 8.32283 34.8768 8.90443 34.8594 9.54679C34.8421 10.1892 34.573 10.7708 34.0521 11.2916L31.9167 13.427ZM5.56254 34.2603H7.69796L25.823 16.1353L23.6875 13.9999L5.56254 32.1249V34.2603ZM3.21879 36.6041V31.1353L23.6875 10.6145L29.2084 16.1353L8.68754 36.6041H3.21879ZM23.6875 13.9999L25.823 16.1353L23.6875 13.9999Z" fill="white"/>
</svg>
