<svg width="41" height="40" viewBox="0 0 41 40" fill="none" xmlns="http://www.w3.org/2000/svg">
<path fill-rule="evenodd" clip-rule="evenodd" d="M17.2162 1.50452C15.7915 2.33014 14.5522 3.07239 14.462 3.15396C14.3007 3.29999 14.2981 3.3521 14.2981 6.48495C14.2981 9.40184 14.3095 9.68124 14.4348 9.83055C14.6023 10.0301 19.8262 13.0446 20.0046 13.0446C20.0748 13.0446 20.9027 12.6012 21.8444 12.0593C22.7862 11.5173 23.989 10.8265 24.5174 10.5242C25.0458 10.2218 25.5293 9.90149 25.5917 9.81226C25.6866 9.67694 25.7053 9.12627 25.7053 6.47776V3.30538L25.5295 3.1438C25.4328 3.05497 24.422 2.44492 23.2832 1.78814C22.1445 1.13137 20.9807 0.45959 20.6971 0.295279C20.4135 0.131046 20.097 -0.00185556 19.9939 1.96019e-05C19.8908 0.00189476 18.6408 0.678906 17.2162 1.50452ZM21.9654 2.47672C22.9874 3.06723 23.7986 3.57337 23.7682 3.60142C23.7378 3.62947 22.8798 4.13287 21.8615 4.72011L20.0099 5.78786L18.0834 4.67737C16.8088 3.9427 16.1927 3.54689 16.2627 3.50758C16.3209 3.47493 17.1597 2.9891 18.1265 2.42788C19.0934 1.86666 19.9346 1.40647 19.9958 1.40522C20.0571 1.40397 20.9434 1.88612 21.9654 2.47672ZM17.9312 6.03694L19.3376 6.85521L19.3583 9.08541L19.379 11.3156L17.6785 10.3363C16.7431 9.79773 15.8812 9.30019 15.7631 9.23065L15.5482 9.10431V6.88764V4.67104L16.0365 4.94482C16.3051 5.09545 17.1577 5.5869 17.9312 6.03694ZM24.3588 9.15205C24.3044 9.18541 23.4419 9.68694 22.4422 10.2665L20.6243 11.3204L20.6451 9.08681L20.6658 6.85318L22.541 5.77176L24.4161 4.69034L24.4369 6.89084C24.453 8.59997 24.4356 9.10486 24.3588 9.15205ZM5.59681 8.65076C5.35905 8.70522 0.224707 11.7002 0.110088 11.8512C0.0261741 11.9619 0.00445351 12.6225 0.00250021 15.1302L0 18.2706L0.175796 18.4644C0.422849 18.7367 5.49578 21.6391 5.72463 21.6391C5.828 21.6391 6.54236 21.2766 7.31211 20.8336C8.08186 20.3906 9.28822 19.6962 9.99281 19.2905C11.0689 18.6709 11.2914 18.5113 11.3831 18.2932C11.4716 18.0827 11.4879 17.4596 11.4693 14.9943C11.4472 12.0741 11.4402 11.9489 11.29 11.8017C11.113 11.6281 6.35695 8.85867 5.98473 8.71248C5.85159 8.66013 5.67705 8.6324 5.59681 8.65076ZM34.0179 8.70803C33.6113 8.88172 28.8737 11.645 28.7134 11.8019C28.5632 11.9489 28.5562 12.074 28.5342 14.9943C28.5154 17.4755 28.5315 18.0813 28.6215 18.2932C28.7379 18.5673 28.62 18.4938 32.6942 20.8336C33.4655 21.2766 34.1821 21.6391 34.2867 21.6391C34.5188 21.6391 39.5816 18.7401 39.8276 18.4663L40.0034 18.2706V15.1255C40.0034 12.125 39.9965 11.9728 39.8525 11.8181C39.7694 11.729 39.1981 11.3659 38.5828 11.0114C37.9675 10.6567 36.8137 9.99041 36.0187 9.53076C35.2237 9.07103 34.4991 8.67615 34.4086 8.65318C34.3179 8.63029 34.1421 8.6549 34.0179 8.70803ZM7.68152 11.0913C8.69637 11.6714 9.52769 12.1636 9.52886 12.1851C9.52995 12.2066 8.68652 12.7111 7.65448 13.3062C6.37648 14.043 5.73502 14.3716 5.64314 14.3364C5.39804 14.2425 1.95329 12.2415 1.95376 12.1932C1.95446 12.1184 5.65494 9.99892 5.75041 10.0187C5.7976 10.0285 6.66666 10.5112 7.68152 11.0913ZM36.1882 11.0717C37.2118 11.6627 38.0494 12.1682 38.0497 12.1953C38.0502 12.2499 34.4892 14.3189 34.326 14.3588C34.1775 14.3952 30.4681 12.2367 30.5451 12.1589C30.6404 12.0626 34.1701 10.0129 34.2549 10.0045C34.2946 10.0006 35.1646 10.4809 36.1882 11.0717ZM3.34013 14.4857L5.07856 15.4874V17.7095V19.9316L4.66837 19.6967C4.44272 19.5675 3.59015 19.0751 2.77367 18.6025L1.28917 17.7433L1.26839 15.5013L1.24768 13.2594L1.42465 13.3717C1.52208 13.4334 2.38395 13.9347 3.34013 14.4857ZM38.7533 15.4994V17.7199L37.1711 18.6357C36.301 19.1393 35.4395 19.6377 35.2569 19.7432L34.9249 19.935V17.7105V15.486L36.8196 14.388C37.8616 13.7839 38.7231 13.2873 38.7338 13.2844C38.7445 13.2814 38.7533 14.2782 38.7533 15.4994ZM10.2352 15.5342V17.7112L8.34907 18.7962C7.31164 19.3928 6.43266 19.8928 6.39578 19.9071C6.35882 19.9215 6.32906 18.937 6.32945 17.7194L6.33023 15.5057L8.18507 14.4352C9.20524 13.8464 10.0839 13.363 10.1376 13.3608C10.2135 13.358 10.2352 13.8426 10.2352 15.5342ZM31.8072 14.4314L33.6724 15.5057L33.6736 17.7194C33.6742 18.937 33.6455 19.9215 33.6096 19.9071C33.5737 19.8928 32.6947 19.3914 31.6563 18.7929L29.7682 17.7046V15.5309C29.7682 13.9875 29.7934 13.3571 29.8551 13.3571C29.9029 13.3571 30.7813 13.8406 31.8072 14.4314ZM19.5685 14.8772L19.3767 15.0689V17.3339C19.3767 19.5965 19.3769 19.5991 19.5596 19.8116C19.8107 20.1035 20.1927 20.1035 20.4438 19.8116C20.6265 19.5991 20.6268 19.5965 20.6268 17.3339V15.0689L20.4349 14.8772C20.3141 14.7562 20.1539 14.6853 20.0017 14.6853C19.8495 14.6853 19.6893 14.7562 19.5685 14.8772ZM18.9303 22.028C18.7142 22.1189 18.6342 22.2468 18.3738 22.9186L18.1656 23.4555L17.5315 23.67C17.1828 23.788 16.6887 23.9957 16.4337 24.1317L15.9699 24.3789L15.3562 24.0993C14.9238 23.9021 14.6802 23.8334 14.5309 23.8661C14.4037 23.8941 14.0345 24.2031 13.6055 24.6405C12.7731 25.4893 12.7546 25.5587 13.132 26.4184L13.3722 26.9659L13.0867 27.5438C12.9297 27.8616 12.7248 28.3556 12.6316 28.6414L12.462 29.1611L11.876 29.3839C11.0277 29.7065 11.0166 29.7274 11.0166 31.0099C11.0166 32.2726 11.0222 32.2827 11.9205 32.6151L12.4728 32.8195L12.653 33.3822C12.7523 33.6916 12.9549 34.1872 13.1036 34.4834L13.3738 35.0221L13.1328 35.5678C12.7502 36.4339 12.766 36.4876 13.6621 37.368C14.2293 37.9253 14.4849 38.1248 14.6315 38.1248C14.7409 38.1248 15.0655 38.0194 15.3529 37.8904C15.6402 37.7615 15.91 37.656 15.9522 37.656C15.9946 37.656 16.2814 37.7765 16.5895 37.9238C16.8978 38.071 17.3784 38.2647 17.6578 38.3542L18.1656 38.5169L18.4219 39.1688C18.6121 39.6527 18.7289 39.8439 18.8748 39.9104C18.9887 39.9623 19.4765 40 20.0339 40C21.2096 40 21.2842 39.9577 21.6097 39.1053L21.8346 38.5161L22.2659 38.3911C22.5032 38.3224 22.9852 38.1288 23.3372 37.9611C23.6891 37.7933 24.0111 37.656 24.0526 37.656C24.0942 37.656 24.3632 37.7615 24.6505 37.8904C24.9379 38.0194 25.2625 38.1248 25.3719 38.1248C25.5185 38.1248 25.7741 37.9253 26.3413 37.368C27.2374 36.4876 27.2532 36.4339 26.8707 35.5678L26.6296 35.0221L26.8998 34.4834C27.0485 34.1872 27.2512 33.6916 27.3504 33.3822L27.5306 32.8195L28.0829 32.6151C28.9812 32.2827 28.9869 32.2726 28.9869 31.0099C28.9869 29.7274 28.9758 29.7065 28.1274 29.3839L27.5414 29.1611L27.3718 28.6414C27.2786 28.3556 27.0737 27.8616 26.9167 27.5438L26.6312 26.9659L26.8714 26.4184C27.2488 25.5587 27.2303 25.4893 26.398 24.6405C25.9689 24.2031 25.5997 23.8941 25.4725 23.8661C25.3233 23.8334 25.0796 23.9021 24.6472 24.0993L24.0335 24.3789L23.5697 24.1317C23.3147 23.9957 22.8206 23.7879 22.4719 23.6699L21.8378 23.4551L21.6034 22.8605C21.2593 21.9876 21.2699 21.9939 20.0968 21.973C19.5503 21.9632 19.0254 21.988 18.9303 22.028ZM20.62 23.7695C20.735 24.0603 20.8978 24.3648 20.9819 24.4462C21.0659 24.5275 21.3632 24.6493 21.6425 24.7168C21.9218 24.7843 22.5371 25.034 23.0098 25.2716C23.4825 25.5093 23.9151 25.7034 23.9712 25.7028C24.0272 25.7023 24.3242 25.595 24.6311 25.4645L25.1891 25.227L25.4809 25.5231L25.7727 25.8191L25.5437 26.318C25.4177 26.5924 25.3147 26.9134 25.3147 27.0313C25.3147 27.1491 25.4377 27.4499 25.588 27.6997C25.8856 28.1938 26.1228 28.7788 26.2976 29.4498C26.4351 29.9781 26.6199 30.1599 27.252 30.3893L27.7439 30.5678L27.7208 30.9987L27.6977 31.4295L27.1898 31.6188C26.9105 31.723 26.6236 31.8608 26.5523 31.9251C26.4809 31.9895 26.362 32.2889 26.2881 32.5905C26.2142 32.892 25.9654 33.5135 25.7352 33.9715C25.5049 34.4295 25.3161 34.8841 25.3156 34.9818C25.3151 35.0794 25.4208 35.3934 25.5506 35.6796L25.7866 36.2L25.5353 36.4592C25.3971 36.6018 25.2493 36.7185 25.207 36.7185C25.1646 36.7185 24.8611 36.6085 24.5325 36.4741L23.9349 36.2298L23.1989 36.6258C22.7941 36.8436 22.1464 37.1131 21.7597 37.2247C21.3729 37.3363 21.0139 37.4703 20.9619 37.5224C20.9098 37.5744 20.7664 37.8631 20.6432 38.1639L20.4192 38.7108H20.0017H19.5843L19.3602 38.1639C19.237 37.8631 19.0937 37.5744 19.0415 37.5224C18.9895 37.4703 18.6305 37.3363 18.2437 37.2247C17.857 37.1131 17.2099 36.8439 16.8057 36.6265L16.071 36.2312L15.4775 36.4755C15.1511 36.6098 14.847 36.7195 14.8017 36.7191C14.7565 36.7188 14.6063 36.6018 14.4681 36.4592L14.2168 36.2L14.4528 35.6796C14.5826 35.3934 14.6888 35.0757 14.6888 34.9735C14.6888 34.8713 14.5151 34.4573 14.3029 34.0537C14.0906 33.65 13.8412 33.0385 13.7486 32.6947C13.656 32.3509 13.522 32.0103 13.4508 31.9377C13.3797 31.8651 13.0929 31.7211 12.8136 31.6176L12.3057 31.4295L12.2826 30.9987L12.2595 30.5678L12.7514 30.3911C13.2629 30.2074 13.673 29.8646 13.673 29.6209C13.673 29.361 14.0588 28.3416 14.3755 27.7645C14.5478 27.4506 14.6888 27.109 14.6888 27.0054C14.6888 26.9018 14.5857 26.5924 14.4598 26.318L14.2307 25.8191L14.5258 25.5199L14.8208 25.2205L15.3515 25.4613C15.6435 25.5936 15.939 25.7023 16.0082 25.7028C16.0775 25.7034 16.5209 25.5093 16.9936 25.2716C17.4663 25.034 18.0816 24.7839 18.3609 24.716C18.9419 24.5747 19.1437 24.4209 19.2941 24.0047C19.5961 23.1696 19.5763 23.1913 20.0137 23.2172L20.4108 23.2408L20.62 23.7695ZM5.311 23.7385L5.06848 23.9811L5.09301 25.3489L5.11762 26.7167L6.87559 28.4776C7.84247 29.4461 8.71762 30.2599 8.82028 30.2863C9.2686 30.4011 9.68692 30.0028 9.57715 29.5657C9.53933 29.415 8.98241 28.7968 7.92443 27.7311L6.32867 26.1237V25.0229C6.32867 23.7911 6.27327 23.6349 5.8044 23.5444C5.59376 23.5037 5.51477 23.5348 5.311 23.7385ZM34.0119 23.5929C33.7244 23.7088 33.6748 23.9232 33.6748 25.0483V26.1237L32.079 27.7311C31.021 28.7968 30.4641 29.415 30.4263 29.5657C30.3165 30.0028 30.7348 30.4011 31.1831 30.2863C31.2858 30.2599 32.1609 29.4461 33.1278 28.4776L34.8858 26.7167L34.9104 25.3489L34.9349 23.9811L34.7016 23.7477C34.4615 23.5076 34.3087 23.4734 34.0119 23.5929ZM19.2475 26.4858C17.514 26.7961 16.0362 28.1522 15.5853 29.8464C15.4369 30.4041 15.4391 31.5661 15.5895 32.1437C15.9765 33.6295 17.1362 34.8392 18.6735 35.3606C18.9945 35.4695 19.3305 35.5063 20.0017 35.5063C20.6729 35.5063 21.0089 35.4695 21.3299 35.3606C22.8695 34.8385 24.0243 33.6295 24.4095 32.1365C24.5662 31.5288 24.5686 30.4825 24.4144 29.8788C24.0304 28.3745 22.8204 27.0968 21.3463 26.639C20.7577 26.4562 19.8025 26.3865 19.2475 26.4858ZM20.5893 27.7402C21.6222 27.9312 22.5452 28.6408 22.9947 29.5897C23.2282 30.0827 23.2442 30.1713 23.2442 30.9758C23.2442 31.7798 23.2281 31.8691 22.9953 32.3605C21.8877 34.6988 18.724 34.9685 17.2657 32.8489C16.6462 31.9485 16.5407 30.5954 17.0116 29.5897C17.4414 28.6717 18.2998 27.9864 19.2985 27.764C19.8534 27.6404 20.0316 27.6371 20.5893 27.7402Z" fill="white"/>
</svg>
