<svg width="51" height="50" viewBox="0 0 51 50" fill="none" xmlns="http://www.w3.org/2000/svg">
<path fill-rule="evenodd" clip-rule="evenodd" d="M22.9989 0.128278C17.9007 0.845517 13.468 4.1156 11.3822 8.6982C8.12196 15.8604 10.811 24.1538 17.6675 28.0836C18.6992 28.6749 19.9899 29.201 20.4089 29.201C20.8018 29.201 21.1911 28.8207 21.1911 28.4368C21.1911 28.0529 20.8752 27.6769 20.4323 27.5336C19.8434 27.3431 18.3623 26.5816 17.6746 26.1157C16.6182 25.4001 16.6962 25.5289 16.6962 24.4979C16.6962 22.0722 18.0233 19.9255 20.1787 18.8646L20.6809 18.6175L21.1559 18.9062C22.3709 19.6447 23.4981 19.9509 25.0021 19.9509C26.506 19.9509 27.6333 19.6447 28.8483 18.9062L29.3233 18.6175L29.8255 18.8646C31.9999 19.9349 33.308 22.0773 33.308 24.5688V25.4752L32.4304 26.0623C31.564 26.6418 30.2821 27.3013 29.5719 27.5327C28.8516 27.7675 28.5871 28.4954 29.0529 28.9611C29.3735 29.2818 29.7344 29.2686 30.6533 28.9026C34.5749 27.3413 37.8774 23.8262 39.2193 19.7854C40.0268 17.3539 40.2094 15.0689 39.7982 12.5403C38.7453 6.06611 33.4982 0.983492 26.9859 0.129842C25.6697 -0.0427252 24.218 -0.0433115 22.9989 0.128278ZM27.9336 1.97092C32.2855 2.99411 35.8294 6.03142 37.3979 10.0824C39.1136 14.5136 38.3943 19.4901 35.5026 23.1936L35.018 23.8142L34.8955 23.1608C34.468 20.8819 33.099 18.8281 31.2804 17.7371C30.9982 17.5678 30.7673 17.3957 30.7673 17.3547C30.7673 17.3136 30.9162 17.071 31.098 16.8156C32.5238 14.8135 32.8742 12.2823 32.0486 9.94917C31.2326 7.64326 29.2949 5.87205 26.853 5.19995C25.9837 4.96075 24.0204 4.96075 23.1511 5.19995C20.2421 6.00064 18.1303 8.28779 17.6251 11.1847C17.3789 12.5961 17.4963 13.8258 18.0049 15.1659C18.2733 15.873 18.8417 16.8778 19.0898 17.0838C19.3334 17.2859 19.2612 17.4147 18.7238 17.7371C16.9051 18.8281 15.5362 20.8819 15.1087 23.1608L14.9861 23.8142L14.4976 23.1893C11.606 19.4907 10.8886 14.5187 12.6063 10.0824C14.1932 5.98374 17.906 2.84421 22.2251 1.94864C23.6242 1.65852 23.6316 1.65793 25.3441 1.69545C26.5756 1.72242 27.1255 1.78096 27.9336 1.97092ZM26.576 6.88332C28.5196 7.45447 30.0404 8.98989 30.6309 10.9769C30.8649 11.7642 30.8649 13.2188 30.6309 14.0061C30.0335 16.0164 28.527 17.5229 26.5167 18.1203C25.7294 18.3542 24.2748 18.3542 23.4875 18.1203C20.6444 17.2755 18.7976 14.4979 19.2292 11.7161C19.6239 9.17232 21.5543 7.17588 24.0496 6.73078C24.7083 6.61323 25.9025 6.68534 26.576 6.88332ZM8.86978 25.3207C8.4541 25.5368 8.3984 25.6249 7.26655 27.8536C6.62162 29.1237 6.06845 30.1881 6.03728 30.2191C6.00601 30.2499 4.88471 30.4328 3.54551 30.6253C2.20621 30.8178 0.966674 31.0432 0.790883 31.1262C0.198233 31.4061 -0.101268 32.0613 0.0308444 32.7886C0.0887902 33.1073 0.361614 33.4153 2.00345 35.0151L3.90872 36.8717L3.51121 39.1474C3.05566 41.7548 3.03113 42.1873 3.31275 42.6429C3.58733 43.0873 4.27564 43.4119 4.75358 43.3223C4.95331 43.2849 6.12209 42.732 7.35068 42.0936L9.58467 40.9328L11.8199 42.1025C13.0494 42.7457 14.1634 43.2721 14.2954 43.2721C14.4275 43.2721 14.6567 43.1679 14.8048 43.0405C15.1712 42.7253 15.1819 42.1669 14.8273 41.8619C14.4552 41.5419 9.82027 39.168 9.56748 39.168C9.4465 39.168 8.33615 39.6985 7.10004 40.3469C5.86383 40.9953 4.84054 41.512 4.82589 41.495C4.81133 41.4781 4.9923 40.3651 5.22809 39.0215C5.46388 37.6779 5.63468 36.4844 5.60752 36.3694C5.58035 36.2545 4.71762 35.342 3.69013 34.3418C2.66274 33.3417 1.8642 32.5233 1.91579 32.5233C2.37164 32.5233 6.92102 31.7965 7.07112 31.6997C7.1786 31.6303 7.79021 30.5485 8.43025 29.2955L9.59406 27.0174L10.7493 29.3262C11.3846 30.5961 11.9841 31.6777 12.0815 31.7299C12.1789 31.7819 13.5195 32.0056 15.0607 32.2268C17.6378 32.5968 17.8857 32.6173 18.1471 32.4821C18.4553 32.3227 18.5528 32.1531 18.5528 31.776C18.5528 31.4632 18.4025 31.1864 18.1631 31.0582C18.0587 31.0024 16.8835 30.7998 15.5514 30.608C14.2194 30.4163 13.1075 30.238 13.0807 30.212C13.0538 30.1859 12.5041 29.1234 11.8592 27.8506C10.717 25.5966 10.6753 25.5309 10.2506 25.3167C9.70008 25.0391 9.40996 25.0399 8.86978 25.3207ZM39.9527 25.1674C39.4345 25.3621 39.2252 25.6739 38.0911 27.9405C37.4485 29.225 36.8849 30.2758 36.8388 30.2758C36.4806 30.2758 31.9887 30.9792 31.8406 31.0585C31.4682 31.2578 31.3228 31.908 31.5766 32.2387C31.8925 32.6501 31.9983 32.6497 34.942 32.227C36.4839 32.0057 37.8253 31.7819 37.9226 31.7299C38.0201 31.6777 38.621 30.593 39.2582 29.3195L40.4168 27.004L41.5517 29.2721C42.2437 30.6553 42.7728 31.5959 42.9075 31.683C43.0346 31.765 44.1636 31.9741 45.5636 32.1748C46.9028 32.3668 48.0167 32.5421 48.039 32.5643C48.0612 32.5865 47.2614 33.4067 46.2615 34.387C45.2617 35.3672 44.422 36.2613 44.3955 36.3738C44.3689 36.4864 44.5396 37.6889 44.7749 39.0459C45.0101 40.4029 45.1912 41.5132 45.1772 41.5132C45.1632 41.5132 44.1422 40.9856 42.9082 40.3406C41.6743 39.6957 40.5594 39.1687 40.4308 39.1695C40.1629 39.1713 35.4092 41.6217 35.1206 41.9069C34.827 42.197 34.8656 42.7534 35.1994 43.0405C35.3474 43.1679 35.5769 43.2721 35.7094 43.2721C35.8419 43.2721 36.9576 42.7438 38.1888 42.098L40.4274 40.9237L42.6755 42.103C43.9119 42.7517 45.0774 43.3073 45.2655 43.3379C45.7242 43.4122 46.4279 43.0694 46.6914 42.6429C46.9708 42.1909 46.9484 41.7991 46.4929 39.168L46.0953 36.8717L48.0013 35.0151C49.6454 33.4135 49.9163 33.1077 49.9738 32.7886C50.1062 32.0543 49.7743 31.3455 49.182 31.0981C49.0072 31.025 47.7716 30.8061 46.4361 30.6113C45.1006 30.4167 43.9859 30.2361 43.9591 30.2101C43.9322 30.1841 43.3825 29.1219 42.7376 27.8497C41.5956 25.5969 41.5537 25.5308 41.129 25.3167C40.7114 25.1062 40.2661 25.0497 39.9527 25.1674ZM24.4158 27.9371C23.8845 28.1599 23.5818 28.6309 22.2113 31.3665C20.9433 33.8977 20.782 34.1725 20.5356 34.2218C20.3856 34.2519 18.9948 34.4562 17.4448 34.6759C15.8949 34.8956 14.5098 35.1197 14.3667 35.1739C14.0395 35.2979 13.6891 35.621 13.5111 35.9629C13.3313 36.3085 13.3359 37.0555 13.5201 37.4432C13.6006 37.6126 14.6773 38.7185 15.9127 39.9009C17.1482 41.0833 18.1597 42.1259 18.1605 42.2178C18.1612 42.3097 17.9389 43.6509 17.6665 45.1981C17.1112 48.3513 17.0933 48.8199 17.5081 49.3637C17.8282 49.7834 18.5002 50.0616 19.0162 49.9883C19.2184 49.9594 20.6471 49.2777 22.1976 48.47L25.0118 47.0041L27.7186 48.4142C29.2073 49.1896 30.586 49.8727 30.7824 49.932C31.4431 50.1316 32.2567 49.8124 32.6244 49.2093C32.912 48.7377 32.8763 48.2472 32.3193 45.0202L31.8192 42.1228L33.272 40.7169C34.071 39.9437 35.0918 38.9601 35.5402 38.5311C36.4812 37.631 36.6529 37.3523 36.6529 36.7251C36.6529 36.0263 36.2458 35.4044 35.6374 35.1739C35.4944 35.1197 34.1092 34.8956 32.5594 34.6759C31.0094 34.4562 29.6193 34.252 29.4702 34.2222C29.2256 34.1733 29.0563 33.8833 27.7367 31.2532C26.4473 28.6837 26.2321 28.3126 25.919 28.119C25.5193 27.872 24.7835 27.783 24.4158 27.9371ZM26.5179 32.5346C27.3402 34.1868 28.0718 35.537 28.1863 35.6134C28.3026 35.6911 29.7288 35.9406 31.5086 36.1947C33.2238 36.4396 34.7046 36.6701 34.7993 36.7069C34.9362 36.7603 34.4809 37.2433 32.5722 39.0695C31.2526 40.332 30.1483 41.4631 30.1182 41.5829C30.0881 41.7028 30.3136 43.2347 30.6194 44.9871C30.9252 46.7396 31.1521 48.1966 31.1236 48.2251C31.0953 48.2534 29.7453 47.5858 28.1237 46.7415C25.8287 45.5466 25.1184 45.218 24.9177 45.259C24.7761 45.2878 23.3519 45.9907 21.753 46.8208C20.1542 47.651 18.8452 48.3024 18.8442 48.2685C18.8431 48.2346 19.0902 46.7685 19.3932 45.0106C19.6962 43.2527 19.9181 41.7111 19.8864 41.5849C19.8545 41.4575 18.7674 40.3363 17.443 39.0647C16.1308 37.8048 15.074 36.7559 15.0945 36.7337C15.115 36.7116 16.5866 36.4835 18.3649 36.2268C20.2909 35.9487 21.6836 35.7028 21.8099 35.6187C21.9347 35.5354 22.6237 34.2677 23.4862 32.5346C24.2916 30.9161 24.9737 29.5918 25.0021 29.5918C25.0304 29.5918 25.7126 30.9161 26.5179 32.5346ZM24.5321 34.4366C24.4108 34.5214 24.0219 35.1701 23.6677 35.8779C23.3135 36.5857 22.9854 37.1893 22.9385 37.2192C22.8917 37.249 22.2705 37.3528 21.5581 37.4497C19.8246 37.6856 19.6277 37.7962 19.6277 38.5338C19.6277 38.9181 19.993 39.2655 20.3982 39.2663C20.9374 39.2675 23.6 38.8584 23.8938 38.7292C24.1556 38.6141 24.3237 38.3535 25.0029 37.0107C25.9045 35.2282 25.9796 34.8802 25.5438 34.5054C25.2413 34.2452 24.844 34.2181 24.5321 34.4366Z" fill="white"/>
</svg>
