<svg width="518" height="444" viewBox="0 0 518 444" fill="none" xmlns="http://www.w3.org/2000/svg">
<path d="M402.175 209.378C455.434 209.378 498.608 166.113 498.608 112.742C498.608 59.3717 455.434 16.1064 402.175 16.1064C348.917 16.1064 305.743 59.3717 305.743 112.742C305.743 166.113 348.917 209.378 402.175 209.378Z" fill="#040642"/>
<path d="M367.836 416.669C336.772 433.464 301.209 443 263.434 443C141.839 443 43.2656 344.22 43.2656 222.368C43.2656 203.028 45.7445 184.271 50.4119 166.398" stroke="#661FFE" stroke-width="2" stroke-miterlimit="10" stroke-linecap="round" stroke-linejoin="round"/>
<path d="M112.381 61.8375C151.801 24.5767 204.957 1.72339 263.433 1.72339C385.029 1.72339 483.602 100.504 483.602 222.356C483.602 246.675 479.672 270.074 472.429 291.946" stroke="#661FFE" stroke-width="2" stroke-miterlimit="10" stroke-linecap="round" stroke-linejoin="round"/>
<path d="M447.169 168.543C452.139 185.616 454.811 203.683 454.811 222.368C454.811 328.286 369.128 414.149 263.433 414.149C222.901 414.149 185.308 401.523 154.365 379.978" stroke="#661FFE" stroke-width="2" stroke-miterlimit="10" stroke-linecap="round" stroke-linejoin="round"/>
<path d="M72.0557 222.368C72.0557 159.261 102.467 103.279 149.407 68.3324C181.257 44.6188 220.713 30.5869 263.434 30.5869C324.522 30.5869 378.923 59.2686 413.965 103.921" stroke="#661FFE" stroke-width="2" stroke-miterlimit="10" stroke-linecap="round" stroke-linejoin="round"/>
<path d="M467.327 290.152C456.129 290.152 447.061 299.252 447.061 310.461C447.061 321.682 456.129 330.77 467.327 330.77C478.524 330.77 487.592 321.67 487.592 310.461C487.592 299.24 478.512 290.152 467.327 290.152ZM467.327 325.729C458.911 325.729 452.091 318.895 452.091 310.461C452.091 302.027 458.911 295.193 467.327 295.193C475.742 295.193 482.562 302.027 482.562 310.461C482.562 318.895 475.742 325.729 467.327 325.729Z" fill="#040642"/>
<path d="M56.0017 125.627C44.2968 125.627 34.8047 135.139 34.8047 146.869C34.8047 158.598 44.2968 168.11 56.0017 168.11C67.7067 168.11 77.1988 158.598 77.1988 146.869C77.1988 135.139 67.7067 125.627 56.0017 125.627ZM56.0017 162.839C47.1989 162.839 40.0646 155.69 40.0646 146.869C40.0646 138.047 47.1989 130.898 56.0017 130.898C64.8046 130.898 71.9388 138.047 71.9388 146.869C71.9388 155.69 64.8046 162.839 56.0017 162.839Z" fill="#040642"/>
<path d="M21.1848 407.194C28.5308 407.194 34.4859 401.226 34.4859 393.864C34.4859 386.503 28.5308 380.535 21.1848 380.535C13.8389 380.535 7.88379 386.503 7.88379 393.864C7.88379 401.226 13.8389 407.194 21.1848 407.194Z" fill="#661FFE"/>
<path d="M501.819 121.424C514.621 116.11 520.701 101.401 515.398 88.5717C510.095 75.7421 495.417 69.6497 482.614 74.964C469.812 80.2783 463.732 94.9869 469.035 107.816C474.338 120.646 489.016 126.738 501.819 121.424Z" fill="#661FFE"/>
</svg>
