<svg width="193" height="52" viewBox="0 0 193 52" fill="none" xmlns="http://www.w3.org/2000/svg">
<path fill-rule="evenodd" clip-rule="evenodd" d="M28.0572 23.2378C29.0307 24.9283 28.4499 27.0846 26.7647 28.0581C26.7751 28.0686 7.12763 39.405 5.33769 40.436C6.90781 42.4458 8.7448 44.1572 10.7703 45.5546L17.9718 41.3991L30.3445 34.2549C34.3849 31.9207 36.3213 27.3568 35.5049 23.0181C35.2851 21.8719 34.877 20.7309 34.2542 19.658C33.6314 18.5903 32.8567 17.6639 31.967 16.8946C28.6226 14.0212 23.6924 13.4194 19.6572 15.7484L7.2845 22.8924C7.92825 17.5017 11.0162 12.472 16.0825 9.5516C21.154 6.6207 26.3772 3.81012 31.4801 0.858279C25.2991 -0.800821 18.4848 -0.0994878 12.5027 3.35479C3.86173 8.34779 -0.681155 17.7162 0.0829737 27.048C0.281856 29.5026 0.84699 31.9469 1.79953 34.3125C3.58948 33.2815 23.2319 21.9346 23.2319 21.9451C24.9276 20.9769 27.0785 21.5526 28.0572 23.2378ZM32.1292 8.65141C34.4792 9.672 36.6249 11.2055 38.3834 13.1995L44.6639 9.57256C43.1147 7.58897 41.3039 5.89314 39.3098 4.50619L32.1292 8.65141ZM48.1967 15.6908L41.9162 19.3177C44.575 27.205 41.4087 36.1286 33.9192 40.4517L18.7568 49.2025C24.8751 50.7831 31.5902 50.0556 37.4939 46.6484C48.4115 40.347 52.7763 27.0533 48.1967 15.6908Z" fill="white"/>
<path d="M59.68 41V5.12H66.908V41H59.68ZM63.112 41V34.604H72.004C74.0147 34.604 75.7827 34.188 77.308 33.356C78.868 32.4893 80.0813 31.1893 80.948 29.456C81.8147 27.7227 82.248 25.5907 82.248 23.06C82.248 20.4947 81.8147 18.3627 80.948 16.664C80.0813 14.9307 78.868 13.648 77.308 12.816C75.7827 11.9493 74.0147 11.516 72.004 11.516H63.112V5.12H72.628C75.852 5.12 78.7467 5.83066 81.312 7.252C83.8773 8.63866 85.9053 10.6667 87.396 13.336C88.9213 16.0053 89.684 19.2467 89.684 23.06C89.684 26.8387 88.9213 30.08 87.396 32.784C85.9053 35.4533 83.8773 37.4987 81.312 38.92C78.7467 40.3067 75.852 41 72.628 41H63.112ZM94.5094 33.928C94.5094 32.264 94.9428 30.7733 95.8094 29.456C96.7108 28.1387 98.1148 27.0813 100.021 26.284C101.928 25.452 104.372 24.984 107.353 24.88L111.565 24.724V28.832L107.769 29.04C106.001 29.1787 104.615 29.456 103.609 29.872C102.604 30.288 101.893 30.7907 101.477 31.38C101.061 31.9347 100.853 32.5413 100.853 33.2C100.853 34.136 101.148 34.8813 101.737 35.436C102.361 35.956 103.141 36.216 104.077 36.216C105.395 36.216 106.643 35.8867 107.821 35.228C109.035 34.5693 110.109 33.7027 111.045 32.628V36.84C110.179 38.2267 108.983 39.3707 107.457 40.272C105.932 41.1387 104.233 41.572 102.361 41.572C100.94 41.572 99.6401 41.26 98.4614 40.636C97.2828 40.012 96.3294 39.128 95.6014 37.984C94.8734 36.84 94.5094 35.488 94.5094 33.928ZM95.3414 15.728C96.6241 15.0693 98.1841 14.4973 100.021 14.012C101.893 13.5267 103.8 13.284 105.741 13.284C107.96 13.284 109.919 13.7 111.617 14.532C113.316 15.3293 114.651 16.5253 115.621 18.12C116.627 19.7147 117.129 21.6907 117.129 24.048V34.552C117.129 35.28 117.147 35.9387 117.181 36.528C117.251 37.1173 117.355 37.7933 117.493 38.556L117.909 41H111.305L110.265 35.8V24.516C110.265 22.748 109.797 21.4133 108.861 20.512C107.96 19.6107 106.591 19.16 104.753 19.16C103.332 19.16 101.997 19.368 100.749 19.784C99.5014 20.1653 98.3574 20.6333 97.3174 21.188L95.3414 15.728ZM125.125 41V3.82L131.937 2.78V41H125.125ZM140.258 41V3.82L147.07 2.78V41H140.258ZM144.99 34.656V26.648L155.806 13.856H164.334L144.99 34.656ZM148.578 27.116L152.998 22.852L165.062 41H157.158L148.578 27.116ZM165.402 13.856H172.838L180.118 35.592L180.17 41H176.01L165.402 13.856ZM166.338 50.464L167.118 44.9C167.569 45.0387 168.002 45.1427 168.418 45.212C168.834 45.316 169.267 45.368 169.718 45.368C170.55 45.368 171.295 45.212 171.954 44.9C172.647 44.588 173.306 43.964 173.93 43.028C174.589 42.1267 175.265 40.7747 175.958 38.972L177.674 35.592L184.85 13.856H192.078L181.314 41.416C180.482 43.6347 179.546 45.472 178.506 46.928C177.501 48.384 176.339 49.4587 175.022 50.152C173.705 50.8453 172.162 51.192 170.394 51.192C169.701 51.192 168.99 51.1227 168.262 50.984C167.569 50.8453 166.927 50.672 166.338 50.464Z" fill="white"/>
</svg>
