<svg width="193" height="62" viewBox="0 0 193 62" fill="none" xmlns="http://www.w3.org/2000/svg">
<path fill-rule="evenodd" clip-rule="evenodd" d="M28.0572 29.2378C29.0307 30.9283 28.4499 33.0846 26.7646 34.0581C26.7751 34.0686 7.12763 45.405 5.33769 46.436C6.90781 48.4458 8.7448 50.1572 10.7703 51.5546L17.9718 47.3991L30.3445 40.2549C34.3849 37.9207 36.3213 33.3568 35.5049 29.0181C35.2851 27.8719 34.877 26.7309 34.2542 25.658C33.6314 24.5903 32.8567 23.6639 31.967 22.8946C28.6226 20.0212 23.6924 19.4194 19.6572 21.7484L7.2845 28.8924C7.92825 23.5017 11.0162 18.472 16.0825 15.5516C21.154 12.6207 26.3772 9.81012 31.4801 6.85828C25.2991 5.19918 18.4848 5.90051 12.5027 9.35479C3.86173 14.3478 -0.681155 23.7162 0.0829737 33.048C0.281856 35.5026 0.84699 37.9469 1.79953 40.3125C3.58948 39.2815 23.2319 27.9346 23.2319 27.9451C24.9276 26.9769 27.0785 27.5526 28.0572 29.2378ZM32.1292 14.6514C34.4792 15.672 36.6249 17.2055 38.3834 19.1995L44.6639 15.5726C43.1148 13.589 41.3039 11.8931 39.3098 10.5062L32.1292 14.6514ZM48.1967 21.6908L41.9162 25.3177C44.575 33.205 41.4087 42.1286 33.9192 46.4517L18.7568 55.2025C24.8751 56.7831 31.5902 56.0556 37.4938 52.6484C48.4115 46.347 52.7763 33.0533 48.1967 21.6908Z" fill="url(#paint0_linear_1107_9293)"/>
<path d="M59.68 49V13.12H66.908V49H59.68ZM63.112 49V42.604H72.004C74.0147 42.604 75.7827 42.188 77.308 41.356C78.868 40.4893 80.0813 39.1893 80.948 37.456C81.8147 35.7227 82.248 33.5907 82.248 31.06C82.248 28.4947 81.8147 26.3627 80.948 24.664C80.0813 22.9307 78.868 21.648 77.308 20.816C75.7827 19.9493 74.0147 19.516 72.004 19.516H63.112V13.12H72.628C75.852 13.12 78.7467 13.8307 81.312 15.252C83.8773 16.6387 85.9053 18.6667 87.396 21.336C88.9213 24.0053 89.684 27.2467 89.684 31.06C89.684 34.8387 88.9213 38.08 87.396 40.784C85.9053 43.4533 83.8773 45.4987 81.312 46.92C78.7467 48.3067 75.852 49 72.628 49H63.112ZM94.5094 41.928C94.5094 40.264 94.9428 38.7733 95.8094 37.456C96.7108 36.1387 98.1148 35.0813 100.021 34.284C101.928 33.452 104.372 32.984 107.353 32.88L111.565 32.724V36.832L107.769 37.04C106.001 37.1787 104.615 37.456 103.609 37.872C102.604 38.288 101.893 38.7907 101.477 39.38C101.061 39.9347 100.853 40.5413 100.853 41.2C100.853 42.136 101.148 42.8813 101.737 43.436C102.361 43.956 103.141 44.216 104.077 44.216C105.395 44.216 106.643 43.8867 107.821 43.228C109.035 42.5693 110.109 41.7027 111.045 40.628V44.84C110.179 46.2267 108.983 47.3707 107.457 48.272C105.932 49.1387 104.233 49.572 102.361 49.572C100.94 49.572 99.6401 49.26 98.4614 48.636C97.2828 48.012 96.3294 47.128 95.6014 45.984C94.8734 44.84 94.5094 43.488 94.5094 41.928ZM95.3414 23.728C96.6241 23.0693 98.1841 22.4973 100.021 22.012C101.893 21.5267 103.8 21.284 105.741 21.284C107.96 21.284 109.919 21.7 111.617 22.532C113.316 23.3293 114.651 24.5253 115.621 26.12C116.627 27.7147 117.129 29.6907 117.129 32.048V42.552C117.129 43.28 117.147 43.9387 117.181 44.528C117.251 45.1173 117.355 45.7933 117.493 46.556L117.909 49H111.305L110.265 43.8V32.516C110.265 30.748 109.797 29.4133 108.861 28.512C107.96 27.6107 106.591 27.16 104.753 27.16C103.332 27.16 101.997 27.368 100.749 27.784C99.5014 28.1653 98.3574 28.6333 97.3174 29.188L95.3414 23.728ZM125.125 49V11.82L131.937 10.78V49H125.125ZM140.258 49V11.82L147.07 10.78V49H140.258ZM144.99 42.656V34.648L155.806 21.856H164.334L144.99 42.656ZM148.578 35.116L152.998 30.852L165.062 49H157.158L148.578 35.116ZM165.402 21.856H172.838L180.118 43.592L180.17 49H176.01L165.402 21.856ZM166.338 58.464L167.118 52.9C167.569 53.0387 168.002 53.1427 168.418 53.212C168.834 53.316 169.267 53.368 169.718 53.368C170.55 53.368 171.295 53.212 171.954 52.9C172.647 52.588 173.306 51.964 173.93 51.028C174.589 50.1267 175.265 48.7747 175.958 46.972L177.674 43.592L184.85 21.856H192.078L181.314 49.416C180.482 51.6347 179.546 53.472 178.506 54.928C177.501 56.384 176.339 57.4587 175.022 58.152C173.705 58.8453 172.162 59.192 170.394 59.192C169.701 59.192 168.99 59.1227 168.262 58.984C167.569 58.8453 166.927 58.672 166.338 58.464Z" fill="#040642"/>
<defs>
<linearGradient id="paint0_linear_1107_9293" x1="0" y1="6" x2="55.9822" y2="13.9715" gradientUnits="userSpaceOnUse">
<stop stop-color="#F11F22"/>
<stop offset="1" stop-color="#F2891D"/>
</linearGradient>
</defs>
</svg>
