<svg width="193" height="60" viewBox="0 0 193 60" fill="none" xmlns="http://www.w3.org/2000/svg">
<path fill-rule="evenodd" clip-rule="evenodd" d="M28.0572 27.9929C29.0307 29.5929 28.4499 31.6337 26.7646 32.555C26.7751 32.5649 7.12763 43.294 5.33769 44.2698C6.90781 46.1719 8.7448 47.7917 10.7703 49.1142L17.9718 45.1813L30.3445 38.4198C34.3849 36.2106 36.3213 31.8913 35.5049 27.7849C35.2851 26.7002 34.877 25.6204 34.2542 24.6049C33.6314 23.5944 32.8567 22.7177 31.967 21.9895C28.6226 19.2701 23.6924 18.7005 19.6572 20.9048L7.2845 27.6661C7.92825 22.5641 11.0162 17.8039 16.0825 15.0399C21.154 12.266 26.3772 9.606 31.4801 6.8123C25.2991 5.24208 18.4848 5.90584 12.5027 9.17507C3.86173 13.9006 -0.681155 22.7671 0.0829737 31.599C0.281856 33.9222 0.84699 36.2354 1.79953 38.4744C3.58948 37.4986 23.2319 26.7596 23.2319 26.7695C24.9276 25.8531 27.0785 26.398 28.0572 27.9929ZM32.1292 14.1879C34.4792 15.1539 36.6249 16.6052 38.3834 18.4924L44.6639 15.0597C43.1148 13.1824 41.3039 11.5774 39.3098 10.2648L32.1292 14.1879ZM48.1967 20.8502L41.9162 24.2829C44.575 31.7476 41.4087 40.1932 33.9192 44.2847L18.7568 52.5667C24.8751 54.0626 31.5902 53.374 37.4938 50.1494C48.4115 44.1855 52.7763 31.604 48.1967 20.8502Z" fill="#661FFE"/>
<path d="M59.68 49.3214V13.4414H66.908V49.3214H59.68ZM63.112 49.3214V42.9254H72.004C74.0147 42.9254 75.7827 42.5094 77.308 41.6774C78.868 40.8108 80.0813 39.5108 80.948 37.7774C81.8147 36.0441 82.248 33.9121 82.248 31.3814C82.248 28.8161 81.8147 26.6841 80.948 24.9854C80.0813 23.2521 78.868 21.9694 77.308 21.1374C75.7827 20.2708 74.0147 19.8374 72.004 19.8374H63.112V13.4414H72.628C75.852 13.4414 78.7467 14.1521 81.312 15.5734C83.8773 16.9601 85.9053 18.9881 87.396 21.6574C88.9213 24.3268 89.684 27.5681 89.684 31.3814C89.684 35.1601 88.9213 38.4014 87.396 41.1054C85.9053 43.7748 83.8773 45.8201 81.312 47.2414C78.7467 48.6281 75.852 49.3214 72.628 49.3214H63.112ZM94.5094 42.2494C94.5094 40.5854 94.9428 39.0948 95.8094 37.7774C96.7108 36.4601 98.1148 35.4028 100.021 34.6054C101.928 33.7734 104.372 33.3054 107.353 33.2014L111.565 33.0454V37.1534L107.769 37.3614C106.001 37.5001 104.615 37.7774 103.609 38.1934C102.604 38.6094 101.893 39.1121 101.477 39.7014C101.061 40.2561 100.853 40.8628 100.853 41.5214C100.853 42.4574 101.148 43.2028 101.737 43.7574C102.361 44.2774 103.141 44.5374 104.077 44.5374C105.395 44.5374 106.643 44.2081 107.821 43.5494C109.035 42.8908 110.109 42.0241 111.045 40.9494V45.1614C110.179 46.5481 108.983 47.6921 107.457 48.5934C105.932 49.4601 104.233 49.8934 102.361 49.8934C100.94 49.8934 99.6401 49.5814 98.4614 48.9574C97.2828 48.3334 96.3294 47.4494 95.6014 46.3054C94.8734 45.1614 94.5094 43.8094 94.5094 42.2494ZM95.3414 24.0494C96.6241 23.3908 98.1841 22.8188 100.021 22.3334C101.893 21.8481 103.8 21.6054 105.741 21.6054C107.96 21.6054 109.919 22.0214 111.617 22.8534C113.316 23.6508 114.651 24.8468 115.621 26.4414C116.627 28.0361 117.129 30.0121 117.129 32.3694V42.8734C117.129 43.6014 117.147 44.2601 117.181 44.8494C117.251 45.4388 117.355 46.1148 117.493 46.8774L117.909 49.3214H111.305L110.265 44.1214V32.8374C110.265 31.0694 109.797 29.7348 108.861 28.8334C107.96 27.9321 106.591 27.4814 104.753 27.4814C103.332 27.4814 101.997 27.6894 100.749 28.1054C99.5014 28.4868 98.3574 28.9548 97.3174 29.5094L95.3414 24.0494ZM125.125 49.3214V12.1414L131.937 11.1014V49.3214H125.125ZM140.258 49.3214V12.1414L147.07 11.1014V49.3214H140.258ZM144.99 42.9774V34.9694L155.806 22.1774H164.334L144.99 42.9774ZM148.578 35.4374L152.998 31.1734L165.062 49.3214H157.158L148.578 35.4374ZM165.402 22.1774H172.838L180.118 43.9134L180.17 49.3214H176.01L165.402 22.1774ZM166.338 58.7854L167.118 53.2214C167.569 53.3601 168.002 53.4641 168.418 53.5334C168.834 53.6374 169.267 53.6894 169.718 53.6894C170.55 53.6894 171.295 53.5334 171.954 53.2214C172.647 52.9094 173.306 52.2854 173.93 51.3494C174.589 50.4481 175.265 49.0961 175.958 47.2934L177.674 43.9134L184.85 22.1774H192.078L181.314 49.7374C180.482 51.9561 179.546 53.7934 178.506 55.2494C177.501 56.7054 176.339 57.7801 175.022 58.4734C173.705 59.1668 172.162 59.5134 170.394 59.5134C169.701 59.5134 168.99 59.4441 168.262 59.3054C167.569 59.1668 166.927 58.9934 166.338 58.7854Z" fill="#040642"/>
</svg>
