<svg width="691" height="621" viewBox="0 0 691 621" fill="none" xmlns="http://www.w3.org/2000/svg">
<g clip-path="url(#clip0_235_97)">
<path d="M153.766 308.504C82.7548 308.504 25.1888 250.817 25.1888 179.656C25.1888 108.496 82.7548 50.8086 153.766 50.8086C224.777 50.8086 282.343 108.496 282.343 179.656C282.343 250.817 224.777 308.504 153.766 308.504Z" fill="#040642"/>
<path d="M199.554 584.89C240.972 607.283 288.388 619.998 338.755 619.998C500.883 619.998 632.313 488.291 632.313 325.822C632.313 300.036 629.008 275.026 622.785 251.195" stroke="#661FFE" stroke-width="2" stroke-miterlimit="10" stroke-linecap="round" stroke-linejoin="round"/>
<path d="M540.158 111.785C487.598 62.1038 416.724 31.6328 338.755 31.6328C176.628 31.6328 45.1972 163.34 45.1972 325.809C45.1972 358.235 50.4372 389.433 60.0942 418.596" stroke="#661FFE" stroke-width="2" stroke-miterlimit="10" stroke-linecap="round" stroke-linejoin="round"/>
<path d="M93.7742 254.059C87.1472 276.823 83.5842 300.913 83.5842 325.826C83.5842 467.049 197.828 581.534 338.755 581.534C392.798 581.534 442.922 564.699 484.18 535.973" stroke="#661FFE" stroke-width="2" stroke-miterlimit="10" stroke-linecap="round" stroke-linejoin="round"/>
<path d="M593.926 325.825C593.926 241.682 553.378 167.039 490.79 120.444C448.324 88.8263 395.716 70.1172 338.755 70.1172C257.304 70.1172 184.769 108.359 138.046 167.896" stroke="#661FFE" stroke-width="2" stroke-miterlimit="10" stroke-linecap="round" stroke-linejoin="round"/>
<path d="M593.007 544.565C559.216 544.565 531.822 517.115 531.822 483.252C531.822 449.39 559.216 421.938 593.007 421.938C626.799 421.938 654.192 449.39 654.192 483.252C654.192 517.115 626.799 544.565 593.007 544.565Z" fill="#661FFE"/>
<path d="M66.8969 416.203C81.8269 416.203 93.9189 428.336 93.9189 443.281C93.9189 458.242 81.8269 470.359 66.8969 470.359C51.9679 470.359 39.8759 458.226 39.8759 443.281C39.8759 428.32 51.9839 416.203 66.8969 416.203ZM66.8969 463.638C78.1189 463.638 87.2119 454.526 87.2119 443.281C87.2119 432.036 78.1189 422.924 66.8969 422.924C55.6759 422.924 46.5829 432.036 46.5829 443.281C46.5829 454.526 55.6759 463.638 66.8969 463.638Z" fill="#040642"/>
<path d="M615.331 196.836C630.938 196.836 643.594 209.519 643.594 225.159C643.594 240.798 630.938 253.481 615.331 253.481C599.724 253.481 587.068 240.798 587.068 225.159C587.068 209.519 599.724 196.836 615.331 196.836ZM615.331 246.453C627.068 246.453 636.58 236.921 636.58 225.159C636.58 213.397 627.068 203.864 615.331 203.864C603.594 203.864 594.082 213.397 594.082 225.159C594.082 236.921 603.594 246.453 615.331 246.453Z" fill="#040642"/>
<path d="M211.325 35.5435C201.53 35.5435 193.59 27.5868 193.59 17.7717C193.59 7.95668 201.53 0 211.325 0C221.119 0 229.059 7.95668 229.059 17.7717C229.059 27.5868 221.119 35.5435 211.325 35.5435Z" fill="#802FE0"/>
<path d="M661.753 572.259C651.959 572.259 644.019 564.302 644.019 554.487C644.019 544.671 651.959 536.715 661.753 536.715C671.548 536.715 679.488 544.671 679.488 554.487C679.488 564.302 671.548 572.259 661.753 572.259Z" fill="#661FFE"/>
<path d="M594.007 580.774C540.991 580.774 498.013 537.706 498.013 484.579C498.013 431.452 540.991 388.383 594.007 388.383C647.022 388.383 690 431.452 690 484.579C690 537.706 647.022 580.774 594.007 580.774Z" stroke="#661FFE" stroke-miterlimit="10"/>
<path d="M20.9083 191.23C3.83825 184.144 -4.26779 164.533 2.80322 147.427C9.87422 130.321 29.4442 122.198 46.5142 129.283C63.5842 136.369 71.6903 155.98 64.6193 173.087C57.5493 190.193 37.9783 198.316 20.9083 191.23Z" fill="#661FFE"/>
</g>
<defs>
<clipPath id="clip0_235_97">
<rect width="691" height="621" fill="white" transform="matrix(-1 0 0 1 691 0)"/>
</clipPath>
</defs>
</svg>
