<svg width="195" height="100" viewBox="0 0 195 100" fill="none" xmlns="http://www.w3.org/2000/svg">
<g opacity="0.12">
<path d="M143.903 -83C143.903 -83 172.101 24.1976 90.3337 55.3638C8.56604 86.5299 22.5205 169 22.5205 169H-9.03932V-83H143.903Z" fill="#661FFE"/>
<path d="M147.071 -27.3237C142.29 -13.1204 131.775 2.11931 118.967 9.89667C106.159 17.674 86.9915 24.4119 74.9711 33.361C56.8428 46.8556 47.7834 61.0716 39.4989 82.0978C31.2144 103.124 20.5769 140.225 16.3086 162.413C1.6391 131.761 2.61874 81.9592 7.47919 48.3267C8.15959 43.6143 9.09827 38.7727 11.7852 34.8415C13.9902 31.6159 17.2064 29.2471 20.3627 26.9413C50.8799 4.64561 81.3971 -17.6501 111.917 -39.9489C119.411 -45.4236 128.452 -51.1944 137.322 -48.4602C145.849 -45.8331 150.335 -34.5246 145.934 -26.7662" fill="white"/>
<path d="M194.18 -83C194.18 -83 172.901 -14.9191 117.61 -7.70241C62.3176 -0.485756 42.5765 33.3452 38.1161 41.9951C33.6557 50.645 17.5025 87.9725 -9.03941 88.8325V-83H194.18Z" fill="#661FFE"/>
</g>
</svg>
