<svg width="181" height="100" viewBox="0 0 181 100" fill="none" xmlns="http://www.w3.org/2000/svg">
<g opacity="0.12">
<path d="M51.2375 169C51.2375 169 23.0387 61.8024 104.806 30.6362C186.574 -0.529854 172.62 -83 172.62 -83H204.179V169H51.2375Z" fill="#661FFE"/>
<path d="M48.0687 113.324C52.8504 99.1204 63.3651 83.8807 76.173 76.1033C88.9809 68.326 108.149 61.5881 120.169 52.639C138.297 39.1444 147.357 24.9284 155.641 3.90219C163.926 -17.1241 174.563 -54.2248 178.831 -76.4134C193.501 -45.7607 192.521 4.04079 187.661 37.6733C186.981 42.3857 186.042 47.2273 183.355 51.1585C181.15 54.3841 177.934 56.7529 174.777 59.0587C144.26 81.3544 113.743 103.65 83.2227 125.949C75.7289 131.424 66.6884 137.194 57.818 134.46C49.2909 131.833 44.8053 120.525 49.2059 112.766" fill="white"/>
<path d="M0.960449 169C0.960449 169 22.2387 100.919 77.5306 93.7024C132.823 86.4858 152.564 52.6548 157.024 44.0049C161.484 35.355 177.638 -1.97254 204.18 -2.83249V169H0.960449Z" fill="#661FFE"/>
</g>
</svg>
