<svg width="1225" height="367" viewBox="0 0 1225 367" fill="none" xmlns="http://www.w3.org/2000/svg">
<g clip-path="url(#clip0_365_93)">
<path d="M921.999 274L919.779 275.149L919.775 275.141L919.771 275.133L921.999 274ZM751.999 186L751.316 183.595L751.328 183.592L751.341 183.588L751.999 186ZM515.999 144L518.067 142.595L518.08 142.615L518.093 142.634L515.999 144ZM169.999 32.0005L169.119 29.6596L169.159 29.647L169.189 29.6353L169.999 32.0005ZM1220.91 302.75C1222.15 302.148 1223.65 302.667 1224.25 303.91C1224.85 305.152 1224.33 306.648 1223.09 307.25L1220.91 302.75ZM0.649414 29.4974C0.179414 28.2019 0.839404 26.7646 2.1394 26.2872L23.2494 18.5073C24.5394 18.0299 25.9794 18.6931 26.4594 19.9887C26.9394 21.2842 26.2694 22.7215 24.9794 23.1989L6.20935 30.1144L13.1294 48.8807C13.5994 50.1763 12.9394 51.6135 11.6394 52.091C10.3494 52.5684 8.90944 51.9051 8.42944 50.6096L0.649414 29.4974ZM919.771 275.133C909.923 255.766 889.676 228.112 861.076 208.305C832.537 188.541 795.79 176.648 752.657 188.412L751.341 183.588C796.208 171.352 834.461 183.792 863.922 204.195C893.322 224.555 914.075 252.9 924.227 272.867L919.771 275.133ZM752.682 188.405C723.138 196.798 675.839 204.753 629.814 201.343C583.867 197.939 538.544 183.146 513.905 145.366L518.093 142.634C541.454 178.454 584.798 192.994 630.184 196.357C675.492 199.714 722.193 191.869 751.316 183.595L752.682 188.405ZM513.931 145.405C471.94 83.5762 344.522 -25.1252 170.809 34.3656L169.189 29.6353C345.876 -30.8739 475.391 79.7581 518.067 142.595L513.931 145.405ZM924.219 272.851C936.055 295.713 965.073 325.008 1013.66 337.706C1062.2 350.395 1130.5 346.56 1220.91 302.75L1223.09 307.25C1131.9 351.44 1062.36 355.605 1012.39 342.544C962.458 329.492 932.276 299.287 919.779 275.149L924.219 272.851ZM170.879 34.3413C132.649 48.675 63.2593 59.1955 1.94934 30.903L4.04944 26.363C63.7494 53.9108 131.659 43.7061 169.119 29.6596L170.879 34.3413Z" fill="#661FFE"/>
<path opacity="0.3" d="M1032 367C1018.19 367 1007 355.807 1007 342C1007 328.193 1018.19 317 1032 317C1045.81 317 1057 328.193 1057 342C1057 355.807 1045.81 367 1032 367Z" fill="#661FFE"/>
<path opacity="0.5" d="M1032 357C1023.72 357 1017 350.284 1017 342C1017 333.716 1023.72 327 1032 327C1040.28 327 1047 333.716 1047 342C1047 350.284 1040.28 357 1032 357Z" fill="#661FFE"/>
<path d="M1032 352C1026.48 352 1022 347.523 1022 342C1022 336.477 1026.48 332 1032 332C1037.52 332 1042 336.477 1042 342C1042 347.523 1037.52 352 1032 352Z" fill="white"/>
<path opacity="0.3" d="M621 221C607.193 221 596 209.807 596 196C596 182.193 607.193 171 621 171C634.807 171 646 182.193 646 196C646 209.807 634.807 221 621 221Z" fill="#661FFE"/>
<path opacity="0.5" d="M621 211C612.716 211 606 204.284 606 196C606 187.716 612.716 181 621 181C629.284 181 636 187.716 636 196C636 204.284 629.284 211 621 211Z" fill="#661FFE"/>
<path d="M621 206C615.477 206 611 201.523 611 196C611 190.477 615.477 186 621 186C626.523 186 631 190.477 631 196C631 201.523 626.523 206 621 206Z" fill="white"/>
<path opacity="0.3" d="M190 50C176.193 50 165 38.8071 165 25C165 11.1929 176.193 0 190 0C203.807 0 215 11.1929 215 25C215 38.8071 203.807 50 190 50Z" fill="#661FFE"/>
<path opacity="0.5" d="M190 40C181.716 40 175 33.2843 175 25C175 16.7157 181.716 10 190 10C198.284 10 205 16.7157 205 25C205 33.2843 198.284 40 190 40Z" fill="#661FFE"/>
<path d="M190 35C184.477 35 180 30.5228 180 25C180 19.4772 184.477 15 190 15C195.523 15 200 19.4772 200 25C200 30.5228 195.523 35 190 35Z" fill="white"/>
</g>
<defs>
<clipPath id="clip0_365_93">
<rect width="1225" height="367" fill="white" transform="matrix(-1 0 0 1 1225 0)"/>
</clipPath>
</defs>
</svg>
