<svg width="1225" height="367" viewBox="0 0 1225 367" fill="none" xmlns="http://www.w3.org/2000/svg">
<path d="M303 274L305.22 275.149L305.224 275.141L305.228 275.133L303 274ZM473 186L473.683 183.595L473.671 183.592L473.658 183.588L473 186ZM709 144L706.932 142.595L706.919 142.615L706.906 142.634L709 144ZM1055 32.0001L1055.88 29.6592L1055.84 29.6466L1055.81 29.6349L1055 32.0001ZM4.0902 302.75C2.84768 302.148 1.35233 302.667 0.750229 303.91C0.14813 305.152 0.667288 306.648 1.9098 307.25L4.0902 302.75ZM1224.35 29.497C1224.82 28.2015 1224.16 26.7642 1222.86 26.2868L1201.75 18.5069C1200.46 18.0295 1199.02 18.6927 1198.54 19.9883C1198.06 21.2838 1198.73 22.7211 1200.02 23.1985L1218.79 30.114L1211.87 48.8803C1211.4 50.1759 1212.06 51.6131 1213.36 52.0906C1214.65 52.568 1216.09 51.9047 1216.57 50.6092L1224.35 29.497ZM305.228 275.133C315.076 255.766 335.323 228.112 363.923 208.305C392.462 188.541 429.209 176.648 472.342 188.412L473.658 183.588C428.791 171.352 390.538 183.792 361.077 204.195C331.677 224.555 310.924 252.9 300.772 272.867L305.228 275.133ZM472.317 188.405C501.861 196.798 549.16 204.753 595.185 201.343C641.132 197.939 686.455 183.146 711.094 145.366L706.906 142.634C683.545 178.454 640.201 192.994 594.815 196.357C549.507 199.714 502.806 191.869 473.683 183.595L472.317 188.405ZM711.068 145.405C753.059 83.5758 880.477 -25.1256 1054.19 34.3652L1055.81 29.6349C879.123 -30.8743 749.608 79.7577 706.932 142.595L711.068 145.405ZM300.78 272.851C288.944 295.713 259.926 325.008 211.343 337.706C162.797 350.395 94.4967 346.56 4.0902 302.75L1.9098 307.25C93.1033 351.44 162.637 355.605 212.607 342.544C262.541 329.492 292.723 299.287 305.22 275.149L300.78 272.851ZM1054.12 34.3409C1092.35 48.6746 1161.74 59.1951 1223.05 30.9026L1220.95 26.3626C1161.25 53.9104 1093.34 43.7057 1055.88 29.6592L1054.12 34.3409Z" fill="#661FFE"/>
<circle opacity="0.3" cx="193" cy="342" r="25" fill="#661FFE"/>
<circle opacity="0.5" cx="193" cy="342" r="15" fill="#661FFE"/>
<circle cx="193" cy="342" r="10" fill="white"/>
<circle opacity="0.3" cx="604" cy="196" r="25" fill="#661FFE"/>
<circle opacity="0.5" cx="604" cy="196" r="15" fill="#661FFE"/>
<circle cx="604" cy="196" r="10" fill="white"/>
<circle opacity="0.3" cx="1035" cy="25" r="25" fill="#661FFE"/>
<circle opacity="0.5" cx="1035" cy="25" r="15" fill="#661FFE"/>
<circle cx="1035" cy="25" r="10" fill="white"/>
</svg>
