<svg width="20" height="20" viewBox="0 0 20 20" fill="none" xmlns="http://www.w3.org/2000/svg">
<path fill-rule="evenodd" clip-rule="evenodd" d="M11.2229 9.29513C11.6123 9.97133 11.38 10.8338 10.7059 11.2232C10.71 11.2274 2.85105 15.762 2.13507 16.1744C2.76312 16.9783 3.49792 17.6629 4.3081 18.2219L7.18872 16.5596L12.1378 13.702C13.754 12.7683 14.5285 10.9427 14.2019 9.20722C14.114 8.74874 13.9508 8.29238 13.7017 7.86321C13.4525 7.43613 13.1427 7.06558 12.7868 6.75783C11.449 5.6085 9.47696 5.36776 7.86287 6.29937L2.9138 9.15698C3.1713 7.00067 4.40648 4.98882 6.43299 3.82064C8.46159 2.64828 10.5509 1.52405 12.5921 0.343312C10.1196 -0.320329 7.39394 -0.0397951 5.00107 1.34192C1.54469 3.33912 -0.272462 7.08649 0.0331895 10.8192C0.112743 11.8011 0.338796 12.7788 0.719813 13.725C1.43579 13.3126 9.29275 8.77385 9.29275 8.77804C9.97104 8.39074 10.8314 8.62102 11.2229 9.29513ZM12.8517 3.46057C13.7917 3.8688 14.65 4.48218 15.3534 5.27981L17.8656 3.82902C17.2459 3.03559 16.5216 2.35726 15.7239 1.80248L12.8517 3.46057ZM19.2787 6.27632L16.7665 7.7271C17.83 10.882 16.5635 14.4515 13.5677 16.1807L7.50274 19.681C9.95004 20.3133 12.6361 20.0222 14.9975 18.6594C19.3646 16.1388 21.1105 10.8213 19.2787 6.27632Z" fill="url(#paint0_linear_1107_8406)"/>
<defs>
<linearGradient id="paint0_linear_1107_8406" x1="0" y1="0" x2="22.3929" y2="3.18858" gradientUnits="userSpaceOnUse">
<stop stop-color="#F11F22"/>
<stop offset="1" stop-color="#F2891D"/>
</linearGradient>
</defs>
</svg>
